<svg width="41" height="40" viewBox="0 0 41 40" fill="none" xmlns="http://www.w3.org/2000/svg">
<g id="champagne_fill" clip-path="url(#clip0_10_8)">
<g id="Icon">
<g id="Food">
<g id="champagne_fill_2">
<path id="&#232;&#183;&#175;&#229;&#190;&#132;" d="M13.8334 5.00004C13.8334 4.07957 14.5796 3.33337 15.5 3.33337H25.5C26.4205 3.33337 27.1667 4.07957 27.1667 5.00004V20C27.1667 23.1064 25.042 25.7165 22.1667 26.4567V33.3334H23.8332C24.7537 33.3334 25.4999 34.0795 25.4999 35C25.4999 35.9205 24.7537 36.6667 23.8332 36.6667H17.1665C16.246 36.6667 15.4998 35.9205 15.4998 35C15.4998 34.0795 16.246 33.3334 17.1665 33.3334H18.8334V26.4567C15.958 25.7165 13.8334 23.1064 13.8334 20V5.00004Z" fill="#DAC0A3"/>
</g>
</g>
</g>
</g>
<defs>
<clipPath id="clip0_10_8">
<rect width="40" height="40" fill="white" transform="translate(0.5)"/>
</clipPath>
</defs>
</svg>
