<svg width="41" height="40" viewBox="0 0 41 40" fill="none" xmlns="http://www.w3.org/2000/svg">
<g id="church_fill" clip-path="url(#clip0_10_14)">
<g id="Icon">
<g id="Building">
<g id="church_fill_2">
<path id="&#229;&#189;&#162;&#231;&#138;&#182;" fill-rule="evenodd" clip-rule="evenodd" d="M22.1667 4.99998C22.1667 4.07951 21.4205 3.33331 20.5 3.33331C19.5795 3.33331 18.8333 4.07951 18.8333 4.99998V6.66665H17.1667C16.2462 6.66665 15.5 7.41285 15.5 8.33331C15.5 9.25378 16.2462 9.99998 17.1667 9.99998H18.8333V12.5L12.8333 17C12.4137 17.3148 12.1667 17.8086 12.1667 18.3333V20.7746L7.90883 23.6131C7.44517 23.9223 7.16667 24.4426 7.16667 25V33.3333C6.2462 33.3333 5.5 34.0795 5.5 35C5.5 35.9205 6.2462 36.6666 7.16667 36.6666H33.8333C34.7538 36.6666 35.5 35.9205 35.5 35C35.5 34.0795 34.7538 33.3333 33.8333 33.3333V25C33.8333 24.4426 33.5548 23.9223 33.0912 23.6131L28.8333 20.7746V18.3333C28.8333 17.8086 28.5863 17.3148 28.1667 17L22.1667 12.5V9.99998H23.8333C24.7538 9.99998 25.5 9.25378 25.5 8.33331C25.5 7.41285 24.7538 6.66665 23.8333 6.66665H22.1667V4.99998ZM23.8333 28.3333V33.3333H17.1667V28.3333C17.1667 26.4923 18.659 25 20.5 25C22.341 25 23.8333 26.4923 23.8333 28.3333Z" fill="#DAC0A3"/>
</g>
</g>
</g>
</g>
<defs>
<clipPath id="clip0_10_14">
<rect width="40" height="40" fill="white" transform="translate(0.5)"/>
</clipPath>
</defs>
</svg>
