<svg width="151" height="80" viewBox="0 0 151 80" fill="none" xmlns="http://www.w3.org/2000/svg">
<path d="M75.4968 26.394C74.8836 26.394 74.3846 25.9018 74.3743 25.2852C74.372 25.0785 74.3092 20.2255 74.3755 18.5458C74.46 16.4915 76.1899 14.5811 77.7166 12.8934C78.2864 12.2665 78.8243 11.675 79.1234 11.2263C80.0518 9.82975 80.3589 8.3727 80.0324 6.88939C79.6418 5.12632 78.4018 3.67156 77.4117 3.06521C75.7309 2.0398 73.3089 1.97585 71.3871 2.9122C70.1391 3.52197 69.0805 4.46516 67.9546 5.46432C67.2741 6.06952 66.5672 6.69869 65.7988 7.25822C65.2986 7.62705 64.5986 7.51857 64.2298 7.01728C63.8655 6.51599 63.9729 5.81488 64.4753 5.44719C65.1524 4.94933 65.7862 4.38296 66.4622 3.78689C67.6486 2.73064 68.8773 1.639 70.4051 0.893344C73.0292 -0.384427 76.2379 -0.285085 78.5856 1.15027C79.9079 1.96101 81.6561 3.82457 82.2259 6.40752C82.6827 8.4789 82.2556 10.5766 80.9927 12.4721C80.5987 13.0602 80.0084 13.7145 79.3815 14.4064C78.1745 15.7379 76.6729 17.3982 76.625 18.6371C76.5576 20.2563 76.625 25.2087 76.625 25.2589C76.6318 25.8756 76.1351 26.386 75.5139 26.3951C75.5082 26.394 75.5048 26.394 75.4968 26.394Z" fill="#102C57"/>
<path d="M147.046 73.781H5.07776V77.1507H147.046V73.781Z" fill="#102C57"/>
<path d="M75.4967 24.584V39.0688L147.545 78.6512C147.545 78.6512 151.08 80.8744 150.417 76.9029C149.544 71.6605 148.03 70.0916 135.557 63.4173C127.152 58.9194 105.758 48.8674 101.595 46.0617C97.1869 43.0906 97.1869 43.0905 87.8622 29.8287C85.929 27.0824 80.9949 24.584 75.4967 24.584Z" fill="#DAC0A3"/>
<path d="M75.4967 24.584V39.0688L3.45166 78.6512C3.45166 78.6512 -0.0813358 80.8744 0.583242 76.9029C1.45336 71.6605 2.96636 70.0916 15.4403 63.4173C23.8492 58.9194 45.2367 48.8674 49.4023 46.0617C53.81 43.0906 53.81 43.0905 63.137 29.8287C65.0702 27.0824 70.0054 24.584 75.4967 24.584Z" fill="#DAC0A3"/>
</svg>
