<svg width="37" height="37" viewBox="0 0 37 37" fill="none" xmlns="http://www.w3.org/2000/svg">
<g id="gift_2_fill 1" clip-path="url(#clip0_17_39)">
<g id="&#233;&#161;&#181;&#233;&#157;&#162;-1">
<g id="Business">
<g id="gift_2_fill">
<path id="&#229;&#189;&#162;&#231;&#138;&#182;" fill-rule="evenodd" clip-rule="evenodd" d="M32 21.2715V27.2715C32 29.6681 30.1267 31.627 27.7644 31.7638L27.5 31.7715H20V21.2715H32ZM17 21.2715V31.7715H9.5C7.10348 31.7715 5.14451 29.8982 5.00764 27.5359L5 27.2715V21.2715H17ZM13.5 3.27148C15.5105 3.27148 17.3076 4.18422 18.5 5.61792C19.6178 4.27383 21.2672 3.38761 23.1256 3.28208L23.5 3.27148H23.6C25.7538 3.27148 27.5 5.01757 27.5 7.17148C27.5 7.79533 27.388 8.39303 27.183 8.94555L27.049 9.27148H27.5C29.8966 9.27148 31.8555 11.1449 31.9924 13.5071L32 13.7715V18.2715H20V9.27148H17V18.2715H5V13.7715C5 11.375 6.87339 9.41599 9.23559 9.27912L9.5 9.27148H9.95105C9.6613 8.63106 9.5 7.9201 9.5 7.17148C9.5 5.10042 11.1144 3.4064 13.1534 3.27916L13.4 3.27148H13.5ZM13.5 6.27148H13.4C12.9029 6.27148 12.5 6.67443 12.5 7.17148C12.5 8.33128 13.4402 9.27148 14.6 9.27148H16.9646C16.7219 7.57534 15.2632 6.27148 13.5 6.27148ZM23.6 6.27148H23.5C21.8207 6.27148 20.4177 7.45412 20.0782 9.03195L20.0354 9.27148H22.4C23.5598 9.27148 24.5 8.33128 24.5 7.17148C24.5 6.72413 24.1737 6.35301 23.746 6.28326L23.6 6.27148Z" fill="#102C57"/>
</g>
</g>
</g>
</g>
<defs>
<clipPath id="clip0_17_39">
<rect width="36" height="36" fill="white" transform="translate(0.5 0.271484)"/>
</clipPath>
</defs>
</svg>
