<svg width="333" height="394" viewBox="0 0 333 394" fill="none" xmlns="http://www.w3.org/2000/svg">
<circle cx="167" cy="7" r="6.5" fill="#DAC0A3" stroke="#DAC0A3"/>
<circle cx="167" cy="387" r="6.5" fill="#DAC0A3" stroke="#DAC0A3"/>
<g clip-path="url(#clip0_10_237)">
<path d="M122 149.5C122 148.672 122.672 148 123.5 148H132.5C133.328 148 134 148.672 134 149.5V163C134 165.796 132.088 168.145 129.5 168.811V175H131C131.828 175 132.5 175.672 132.5 176.5C132.5 177.328 131.828 178 131 178H125C124.171 178 123.5 177.328 123.5 176.5C123.5 175.672 124.171 175 125 175H126.5V168.811C123.912 168.145 122 165.796 122 163V149.5Z" fill="#102C57"/>
</g>
<path d="M176 163H226" stroke="#DAC0A3" stroke-width="2" stroke-linecap="round" stroke-dasharray="4 4"/>
<path d="M233.696 148V147.48L235.048 147.144V136.656L233.696 136.328V135.816H239.136C239.968 135.816 240.701 135.949 241.336 136.216C241.971 136.477 242.467 136.867 242.824 137.384C243.181 137.896 243.36 138.528 243.36 139.28C243.36 140.053 243.155 140.699 242.744 141.216C242.339 141.728 241.765 142.101 241.024 142.336L244.168 147.168L245.712 147.48V148H241.648L238.352 142.624H237.464V147.144L239.264 147.48V148H233.696ZM237.464 141.84H237.92C238.517 141.84 238.995 141.763 239.352 141.608C239.715 141.453 240.008 141.245 240.232 140.984C240.467 140.723 240.632 140.432 240.728 140.112C240.824 139.787 240.872 139.456 240.872 139.12C240.872 138.528 240.744 138.037 240.488 137.648C240.232 137.253 239.893 136.971 239.472 136.8C239.291 136.725 239.093 136.675 238.88 136.648C238.667 136.616 238.395 136.6 238.064 136.6H237.464V141.84ZM249.832 148.168C248.989 148.168 248.253 147.992 247.624 147.64C246.994 147.283 246.504 146.787 246.152 146.152C245.805 145.512 245.632 144.773 245.632 143.936C245.632 143.045 245.824 142.264 246.208 141.592C246.597 140.92 247.136 140.395 247.824 140.016C248.517 139.637 249.32 139.448 250.232 139.448C251.389 139.448 252.272 139.768 252.88 140.408C253.493 141.048 253.816 141.989 253.848 143.232L253.728 143.328H247.056V142.696L251.488 142.536C251.525 142.413 251.544 142.211 251.544 141.928C251.544 140.755 251.045 140.168 250.048 140.168C249.381 140.168 248.866 140.448 248.504 141.008C248.146 141.563 247.968 142.352 247.968 143.376C247.968 145.568 248.818 146.664 250.52 146.664C251.672 146.664 252.57 146.264 253.216 145.464L253.608 145.776C253.325 146.533 252.85 147.123 252.184 147.544C251.522 147.96 250.738 148.168 249.832 148.168ZM259.015 148.168C258.231 148.168 257.535 147.987 256.927 147.624C256.324 147.261 255.85 146.763 255.503 146.128C255.162 145.488 254.991 144.757 254.991 143.936C254.991 143.067 255.18 142.296 255.559 141.624C255.938 140.947 256.46 140.416 257.127 140.032C257.794 139.643 258.556 139.448 259.415 139.448C260.012 139.448 260.548 139.544 261.023 139.736C261.498 139.928 261.874 140.187 262.151 140.512C262.428 140.832 262.567 141.192 262.567 141.592C262.567 141.907 262.479 142.155 262.303 142.336C262.127 142.517 261.887 142.608 261.583 142.608C261.226 142.608 260.978 142.504 260.839 142.296C260.706 142.088 260.623 141.848 260.591 141.576C260.532 141.128 260.431 140.784 260.287 140.544C260.143 140.304 259.876 140.184 259.487 140.184C258.81 140.184 258.284 140.475 257.911 141.056C257.538 141.637 257.351 142.44 257.351 143.464C257.351 144.499 257.551 145.288 257.951 145.832C258.351 146.376 258.932 146.648 259.695 146.648C260.207 146.648 260.663 146.552 261.063 146.36C261.468 146.168 261.839 145.864 262.175 145.448L262.575 145.744C262.26 146.549 261.807 147.155 261.215 147.56C260.623 147.965 259.89 148.168 259.015 148.168ZM267.879 148.168C267.036 148.168 266.3 147.992 265.671 147.64C265.041 147.283 264.551 146.787 264.199 146.152C263.852 145.512 263.679 144.773 263.679 143.936C263.679 143.045 263.871 142.264 264.255 141.592C264.644 140.92 265.183 140.395 265.871 140.016C266.564 139.637 267.367 139.448 268.279 139.448C269.436 139.448 270.319 139.768 270.927 140.408C271.54 141.048 271.863 141.989 271.895 143.232L271.775 143.328H265.103V142.696L269.535 142.536C269.572 142.413 269.591 142.211 269.591 141.928C269.591 140.755 269.092 140.168 268.095 140.168C267.428 140.168 266.913 140.448 266.551 141.008C266.193 141.563 266.015 142.352 266.015 143.376C266.015 145.568 266.865 146.664 268.567 146.664C269.719 146.664 270.617 146.264 271.263 145.464L271.655 145.776C271.372 146.533 270.897 147.123 270.231 147.544C269.569 147.96 268.785 148.168 267.879 148.168ZM272.646 151.96V151.608L273.958 151.24V140.968L272.678 140.544V140.208L275.718 139.448H276.022V140.688H276.102C276.401 140.288 276.785 139.981 277.254 139.768C277.729 139.555 278.219 139.448 278.726 139.448C279.409 139.448 280.011 139.627 280.534 139.984C281.062 140.341 281.473 140.835 281.766 141.464C282.065 142.093 282.214 142.816 282.214 143.632C282.214 144.533 282.025 145.325 281.646 146.008C281.267 146.691 280.737 147.221 280.054 147.6C279.371 147.979 278.571 148.168 277.654 148.168C277.377 148.168 277.115 148.147 276.87 148.104C276.63 148.061 276.39 148 276.15 147.92V151.24L278.094 151.608V151.96H272.646ZM277.694 147.416C278.126 147.416 278.502 147.267 278.822 146.968C279.142 146.669 279.39 146.256 279.566 145.728C279.747 145.2 279.838 144.589 279.838 143.896C279.838 142.888 279.654 142.093 279.286 141.512C278.918 140.925 278.419 140.632 277.79 140.632C277.465 140.632 277.145 140.72 276.83 140.896C276.515 141.067 276.294 141.288 276.166 141.56V145.728C276.166 146.203 276.315 146.603 276.614 146.928C276.913 147.253 277.273 147.416 277.694 147.416ZM287.499 148.168C286.715 148.168 286.019 147.987 285.411 147.624C284.809 147.261 284.334 146.763 283.987 146.128C283.646 145.488 283.475 144.757 283.475 143.936C283.475 143.067 283.665 142.296 284.043 141.624C284.422 140.947 284.945 140.416 285.611 140.032C286.278 139.643 287.041 139.448 287.899 139.448C288.497 139.448 289.033 139.544 289.507 139.736C289.982 139.928 290.358 140.187 290.635 140.512C290.913 140.832 291.051 141.192 291.051 141.592C291.051 141.907 290.963 142.155 290.787 142.336C290.611 142.517 290.371 142.608 290.067 142.608C289.71 142.608 289.462 142.504 289.323 142.296C289.19 142.088 289.107 141.848 289.075 141.576C289.017 141.128 288.915 140.784 288.771 140.544C288.627 140.304 288.361 140.184 287.971 140.184C287.294 140.184 286.769 140.475 286.395 141.056C286.022 141.637 285.835 142.44 285.835 143.464C285.835 144.499 286.035 145.288 286.435 145.832C286.835 146.376 287.417 146.648 288.179 146.648C288.691 146.648 289.147 146.552 289.547 146.36C289.953 146.168 290.323 145.864 290.659 145.448L291.059 145.744C290.745 146.549 290.291 147.155 289.699 147.56C289.107 147.965 288.374 148.168 287.499 148.168ZM291.955 148V147.512L293.267 147.216V140.968L291.963 140.544V140.208L295.163 139.448H295.451V147.216L296.691 147.512V148H291.955ZM294.331 138.096C293.931 138.096 293.622 137.971 293.403 137.72C293.184 137.469 293.075 137.192 293.075 136.888C293.075 136.557 293.187 136.269 293.411 136.024C293.635 135.773 293.942 135.648 294.331 135.648C294.731 135.648 295.048 135.773 295.283 136.024C295.518 136.269 295.635 136.557 295.635 136.888C295.635 137.192 295.523 137.469 295.299 137.72C295.075 137.971 294.752 138.096 294.331 138.096ZM301.993 148.168C301.075 148.168 300.286 147.973 299.625 147.584C298.963 147.195 298.457 146.669 298.105 146.008C297.753 145.347 297.577 144.613 297.577 143.808C297.577 142.997 297.753 142.264 298.105 141.608C298.457 140.947 298.963 140.421 299.625 140.032C300.286 139.643 301.075 139.448 301.993 139.448C302.91 139.448 303.697 139.643 304.353 140.032C305.014 140.421 305.521 140.947 305.873 141.608C306.23 142.264 306.409 142.997 306.409 143.808C306.409 144.613 306.23 145.347 305.873 146.008C305.521 146.669 305.014 147.195 304.353 147.584C303.697 147.973 302.91 148.168 301.993 148.168ZM301.993 147.376C302.377 147.376 302.699 147.272 302.961 147.064C303.222 146.856 303.43 146.579 303.585 146.232C303.739 145.88 303.851 145.493 303.921 145.072C303.99 144.651 304.025 144.227 304.025 143.8C304.025 143.379 303.99 142.957 303.921 142.536C303.857 142.115 303.747 141.731 303.593 141.384C303.438 141.037 303.23 140.76 302.969 140.552C302.707 140.344 302.382 140.24 301.993 140.24C301.603 140.24 301.278 140.344 301.017 140.552C300.755 140.76 300.547 141.037 300.393 141.384C300.238 141.731 300.126 142.117 300.057 142.544C299.993 142.965 299.961 143.387 299.961 143.808C299.961 144.235 299.993 144.659 300.057 145.08C300.126 145.496 300.238 145.88 300.393 146.232C300.547 146.579 300.755 146.856 301.017 147.064C301.278 147.272 301.603 147.376 301.993 147.376ZM301.545 138.008L301.113 137.832L301.817 135.36C301.902 135.045 302.035 134.805 302.217 134.64C302.398 134.475 302.633 134.392 302.921 134.392C303.118 134.392 303.281 134.459 303.409 134.592C303.537 134.725 303.601 134.896 303.601 135.104C303.601 135.253 303.561 135.421 303.481 135.608C303.401 135.789 303.27 135.984 303.089 136.192L301.545 138.008ZM312.864 148V147.512L313.992 147.224V142.624C313.992 141.979 313.861 141.501 313.6 141.192C313.344 140.877 312.946 140.72 312.408 140.72C311.688 140.72 311.104 141.035 310.656 141.664V140.776C311.056 140.371 311.514 140.048 312.032 139.808C312.554 139.568 313.117 139.448 313.72 139.448C315.357 139.448 316.176 140.307 316.176 142.024V147.224L317.36 147.512V148H312.864ZM307.464 148V147.512L308.664 147.216V140.984L307.464 140.544V140.224L310.472 139.448H310.76V140.824L310.832 140.904V147.216L311.968 147.512V148H307.464ZM323.385 152.12C322.905 152.12 322.5 152.011 322.169 151.792C321.839 151.573 321.673 151.256 321.673 150.84C321.673 150.552 321.769 150.32 321.961 150.144C322.153 149.973 322.388 149.888 322.665 149.888C322.889 149.888 323.084 149.952 323.249 150.08C323.415 150.208 323.532 150.408 323.601 150.68C323.66 150.915 323.719 151.067 323.777 151.136C323.841 151.211 323.94 151.248 324.073 151.248C324.255 151.248 324.431 151.152 324.601 150.96C324.777 150.768 324.929 150.488 325.057 150.12L325.689 148.352L322.393 140.728C322.303 140.531 322.167 140.384 321.985 140.288C321.809 140.192 321.535 140.128 321.161 140.096V139.608H325.969V140.096C325.623 140.117 325.364 140.155 325.193 140.208C325.023 140.261 324.921 140.341 324.889 140.448C324.857 140.549 324.876 140.693 324.945 140.88L326.817 145.416H326.889L328.457 141.344C328.628 140.928 328.625 140.624 328.449 140.432C328.273 140.235 327.903 140.123 327.337 140.096V139.608H331.073V140.096C330.679 140.165 330.375 140.245 330.161 140.336C329.953 140.427 329.791 140.552 329.673 140.712C329.556 140.867 329.441 141.083 329.329 141.36L325.841 150.232C325.703 150.573 325.553 150.861 325.393 151.096C325.239 151.331 325.071 151.52 324.889 151.664C324.516 151.968 324.015 152.12 323.385 152.12ZM238.28 168.168C237.859 168.168 237.448 168.104 237.048 167.976C236.653 167.843 236.291 167.661 235.96 167.432H235.856L234.688 168H234.288V156.376L233.008 155.952V155.632L236.176 154.856H236.472V160.56C236.819 160.208 237.208 159.936 237.64 159.744C238.072 159.547 238.539 159.448 239.04 159.448C239.733 159.448 240.341 159.619 240.864 159.96C241.387 160.296 241.795 160.765 242.088 161.368C242.387 161.965 242.536 162.661 242.536 163.456C242.536 164.347 242.347 165.149 241.968 165.864C241.595 166.573 241.085 167.136 240.44 167.552C239.8 167.963 239.08 168.168 238.28 168.168ZM238.048 167.4C238.469 167.4 238.837 167.253 239.152 166.96C239.467 166.667 239.709 166.259 239.88 165.736C240.056 165.208 240.144 164.597 240.144 163.904C240.144 162.869 239.96 162.056 239.592 161.464C239.229 160.872 238.723 160.576 238.072 160.576C237.741 160.576 237.44 160.656 237.168 160.816C236.896 160.976 236.664 161.195 236.472 161.472V165.4C236.472 166.003 236.616 166.488 236.904 166.856C237.192 167.219 237.573 167.4 238.048 167.4ZM243.564 168V167.512L244.876 167.216V160.968L243.572 160.544V160.208L246.772 159.448H247.06V167.216L248.3 167.512V168H243.564ZM245.94 158.096C245.54 158.096 245.231 157.971 245.012 157.72C244.794 157.469 244.684 157.192 244.684 156.888C244.684 156.557 244.796 156.269 245.02 156.024C245.244 155.773 245.551 155.648 245.94 155.648C246.34 155.648 246.658 155.773 246.892 156.024C247.127 156.269 247.244 156.557 247.244 156.888C247.244 157.192 247.132 157.469 246.908 157.72C246.684 157.971 246.362 158.096 245.94 158.096ZM253.394 168.168C252.551 168.168 251.815 167.992 251.186 167.64C250.557 167.283 250.066 166.787 249.714 166.152C249.367 165.512 249.194 164.773 249.194 163.936C249.194 163.045 249.386 162.264 249.77 161.592C250.159 160.92 250.698 160.395 251.386 160.016C252.079 159.637 252.882 159.448 253.794 159.448C254.951 159.448 255.834 159.768 256.442 160.408C257.055 161.048 257.378 161.989 257.41 163.232L257.29 163.328H250.618V162.696L255.05 162.536C255.087 162.413 255.106 162.211 255.106 161.928C255.106 160.755 254.607 160.168 253.61 160.168C252.943 160.168 252.429 160.448 252.066 161.008C251.709 161.563 251.53 162.352 251.53 163.376C251.53 165.568 252.381 166.664 254.082 166.664C255.234 166.664 256.133 166.264 256.778 165.464L257.17 165.776C256.887 166.533 256.413 167.123 255.746 167.544C255.085 167.96 254.301 168.168 253.394 168.168ZM263.786 168V167.512L264.914 167.224V162.624C264.914 161.979 264.783 161.501 264.522 161.192C264.266 160.877 263.868 160.72 263.33 160.72C262.61 160.72 262.026 161.035 261.578 161.664V160.776C261.978 160.371 262.436 160.048 262.954 159.808C263.476 159.568 264.039 159.448 264.642 159.448C266.279 159.448 267.098 160.307 267.098 162.024V167.224L268.282 167.512V168H263.786ZM258.386 168V167.512L259.586 167.216V160.984L258.386 160.544V160.224L261.394 159.448H261.682V160.824L261.754 160.904V167.216L262.89 167.512V168H258.386ZM272.364 168.168L269.196 160.776C269.089 160.525 268.964 160.357 268.82 160.272C268.681 160.181 268.404 160.123 267.988 160.096V159.608H272.916V160.096C272.457 160.123 272.143 160.173 271.972 160.248C271.807 160.323 271.724 160.432 271.724 160.576C271.724 160.677 271.753 160.8 271.812 160.944L273.588 165.504H273.652L275.252 161.296C275.353 161.024 275.404 160.819 275.404 160.68C275.404 160.515 275.324 160.392 275.164 160.312C275.009 160.232 274.711 160.16 274.268 160.096V159.608H277.852V160.096C277.447 160.155 277.137 160.224 276.924 160.304C276.711 160.384 276.545 160.501 276.428 160.656C276.316 160.811 276.204 161.029 276.092 161.312L273.452 168.168H272.364ZM282.004 168.168C281.161 168.168 280.425 167.992 279.796 167.64C279.166 167.283 278.676 166.787 278.324 166.152C277.977 165.512 277.804 164.773 277.804 163.936C277.804 163.045 277.996 162.264 278.38 161.592C278.769 160.92 279.308 160.395 279.996 160.016C280.689 159.637 281.492 159.448 282.404 159.448C283.561 159.448 284.444 159.768 285.052 160.408C285.665 161.048 285.988 161.989 286.02 163.232L285.9 163.328H279.228V162.696L283.66 162.536C283.697 162.413 283.716 162.211 283.716 161.928C283.716 160.755 283.217 160.168 282.22 160.168C281.553 160.168 281.038 160.448 280.676 161.008C280.318 161.563 280.14 162.352 280.14 163.376C280.14 165.568 280.99 166.664 282.692 166.664C283.844 166.664 284.742 166.264 285.388 165.464L285.78 165.776C285.497 166.533 285.022 167.123 284.356 167.544C283.694 167.96 282.91 168.168 282.004 168.168ZM292.395 168V167.512L293.523 167.224V162.624C293.523 161.979 293.392 161.501 293.131 161.192C292.875 160.877 292.478 160.72 291.939 160.72C291.219 160.72 290.635 161.035 290.187 161.664V160.776C290.587 160.371 291.046 160.048 291.563 159.808C292.086 159.568 292.648 159.448 293.251 159.448C294.888 159.448 295.707 160.307 295.707 162.024V167.224L296.891 167.512V168H292.395ZM286.995 168V167.512L288.195 167.216V160.984L286.995 160.544V160.224L290.003 159.448H290.291V160.824L290.363 160.904V167.216L291.499 167.512V168H286.995ZM297.596 168V167.512L298.908 167.216V160.968L297.604 160.544V160.208L300.804 159.448H301.092V167.216L302.332 167.512V168H297.596ZM299.972 158.096C299.572 158.096 299.262 157.971 299.044 157.72C298.825 157.469 298.716 157.192 298.716 156.888C298.716 156.557 298.828 156.269 299.052 156.024C299.276 155.773 299.582 155.648 299.972 155.648C300.372 155.648 300.689 155.773 300.924 156.024C301.158 156.269 301.276 156.557 301.276 156.888C301.276 157.192 301.164 157.469 300.94 157.72C300.716 157.971 300.393 158.096 299.972 158.096ZM306.753 168.168C306.097 168.168 305.503 167.984 304.969 167.616C304.436 167.248 304.015 166.747 303.705 166.112C303.396 165.472 303.241 164.749 303.241 163.944C303.241 163.059 303.423 162.28 303.785 161.608C304.148 160.931 304.649 160.403 305.289 160.024C305.935 159.64 306.679 159.448 307.521 159.448C308.124 159.448 308.724 159.565 309.321 159.8V156.4L308.025 155.952V155.632L311.201 154.856H311.497V166.544L312.697 166.888V167.168L309.673 168.168H309.441V167.08L309.361 167.048C309.036 167.411 308.649 167.688 308.201 167.88C307.753 168.072 307.271 168.168 306.753 168.168ZM307.665 167.056C308.007 167.056 308.321 166.979 308.609 166.824C308.897 166.669 309.135 166.459 309.321 166.192V162.096C309.321 161.515 309.177 161.053 308.889 160.712C308.607 160.365 308.22 160.192 307.729 160.192C307.105 160.192 306.601 160.512 306.217 161.152C305.833 161.792 305.641 162.635 305.641 163.68C305.641 164.715 305.82 165.536 306.177 166.144C306.535 166.752 307.031 167.056 307.665 167.056ZM315.649 168.168C315.03 168.168 314.537 167.997 314.169 167.656C313.801 167.309 313.617 166.848 313.617 166.272C313.617 165.765 313.774 165.328 314.089 164.96C314.409 164.587 314.905 164.272 315.577 164.016C316.249 163.755 317.113 163.539 318.169 163.368V162.096C318.169 161.392 318.094 160.915 317.945 160.664C317.801 160.408 317.526 160.28 317.121 160.28C316.71 160.28 316.385 160.379 316.145 160.576C315.905 160.773 315.785 161.043 315.785 161.384C315.785 161.496 315.793 161.608 315.809 161.72C315.83 161.832 315.841 161.941 315.841 162.048C315.841 162.341 315.742 162.584 315.545 162.776C315.353 162.968 315.11 163.064 314.817 163.064C314.534 163.064 314.305 162.973 314.129 162.792C313.958 162.605 313.873 162.365 313.873 162.072C313.873 161.736 313.995 161.397 314.241 161.056C314.486 160.715 314.822 160.413 315.249 160.152C316.027 159.683 316.934 159.448 317.969 159.448C318.502 159.448 318.939 159.517 319.281 159.656C319.622 159.795 319.875 159.995 320.041 160.256C320.153 160.448 320.233 160.696 320.281 161C320.329 161.299 320.353 161.752 320.353 162.36V165.728C320.353 166.213 320.395 166.557 320.481 166.76C320.571 166.963 320.726 167.064 320.945 167.064C321.19 167.064 321.433 166.931 321.673 166.664L322.009 167.096C321.694 167.464 321.366 167.736 321.025 167.912C320.689 168.083 320.31 168.168 319.889 168.168C319.398 168.168 319.025 168.061 318.769 167.848C318.513 167.629 318.345 167.299 318.265 166.856H318.201C317.838 167.288 317.441 167.616 317.009 167.84C316.582 168.059 316.129 168.168 315.649 168.168ZM316.889 166.824C317.145 166.824 317.382 166.771 317.601 166.664C317.825 166.557 318.014 166.403 318.169 166.2V164.032C317.593 164.144 317.139 164.272 316.809 164.416C316.478 164.555 316.246 164.728 316.113 164.936C315.979 165.139 315.913 165.397 315.913 165.712C315.913 166.08 315.993 166.357 316.153 166.544C316.313 166.731 316.558 166.824 316.889 166.824Z" fill="#102C57"/>
<path d="M237.053 190.147C236.418 190.147 235.854 190.023 235.359 189.776C234.869 189.529 234.484 189.19 234.204 188.761C233.924 188.327 233.784 187.839 233.784 187.298C233.784 186.173 234.496 185.249 235.919 184.526C235.303 184.125 234.85 183.709 234.561 183.28C234.272 182.846 234.127 182.372 234.127 181.859C234.127 181.341 234.258 180.881 234.519 180.48C234.78 180.079 235.142 179.764 235.604 179.535C236.066 179.306 236.593 179.192 237.186 179.192C237.746 179.192 238.241 179.292 238.67 179.493C239.104 179.694 239.445 179.971 239.692 180.326C239.939 180.676 240.063 181.077 240.063 181.53C240.063 182.533 239.463 183.324 238.264 183.903C239.057 184.374 239.636 184.857 240 185.352C240.364 185.847 240.546 186.4 240.546 187.011C240.546 187.599 240.392 188.131 240.084 188.607C239.776 189.078 239.358 189.454 238.831 189.734C238.308 190.009 237.716 190.147 237.053 190.147ZM237.263 189.482C237.851 189.482 238.32 189.316 238.67 188.985C239.025 188.654 239.202 188.206 239.202 187.641C239.202 187.067 238.992 186.563 238.572 186.129C238.152 185.69 237.468 185.261 236.521 184.841C235.667 185.378 235.24 186.187 235.24 187.27C235.24 187.961 235.42 188.502 235.779 188.894C236.143 189.286 236.638 189.482 237.263 189.482ZM237.585 183.609C238.374 183.021 238.768 182.328 238.768 181.53C238.768 181.021 238.616 180.613 238.313 180.305C238.01 179.997 237.604 179.843 237.095 179.843C236.614 179.843 236.227 179.981 235.933 180.256C235.644 180.531 235.499 180.905 235.499 181.376C235.499 181.829 235.665 182.232 235.996 182.587C236.327 182.937 236.857 183.278 237.585 183.609ZM243.266 185.436C242.967 185.436 242.729 185.34 242.552 185.149C242.379 184.953 242.293 184.727 242.293 184.47C242.293 184.185 242.379 183.947 242.552 183.756C242.729 183.565 242.967 183.469 243.266 183.469C243.578 183.469 243.823 183.565 244.001 183.756C244.178 183.947 244.267 184.185 244.267 184.47C244.267 184.727 244.178 184.953 244.001 185.149C243.828 185.34 243.583 185.436 243.266 185.436ZM243.266 190.147C242.967 190.147 242.729 190.049 242.552 189.853C242.379 189.657 242.293 189.428 242.293 189.167C242.293 188.892 242.379 188.658 242.552 188.467C242.729 188.276 242.967 188.18 243.266 188.18C243.578 188.18 243.823 188.276 244.001 188.467C244.178 188.658 244.267 188.892 244.267 189.167C244.267 189.428 244.178 189.657 244.001 189.853C243.828 190.049 243.583 190.147 243.266 190.147ZM249.64 190.147C249.131 190.147 248.657 190.012 248.219 189.741C247.78 189.466 247.395 189.083 247.064 188.593C246.737 188.098 246.48 187.522 246.294 186.864C246.112 186.206 246.021 185.492 246.021 184.722C246.021 183.943 246.112 183.219 246.294 182.552C246.48 181.88 246.737 181.294 247.064 180.795C247.395 180.291 247.78 179.899 248.219 179.619C248.657 179.334 249.131 179.192 249.64 179.192C250.148 179.192 250.624 179.334 251.068 179.619C251.511 179.904 251.898 180.298 252.23 180.802C252.566 181.306 252.827 181.894 253.014 182.566C253.205 183.233 253.301 183.952 253.301 184.722C253.301 185.487 253.207 186.199 253.021 186.857C252.839 187.515 252.58 188.091 252.244 188.586C251.912 189.076 251.525 189.459 251.082 189.734C250.638 190.009 250.158 190.147 249.64 190.147ZM249.64 189.531C249.976 189.531 250.263 189.447 250.501 189.279C250.739 189.106 250.93 188.833 251.075 188.46C251.219 188.082 251.324 187.587 251.39 186.976C251.46 186.36 251.495 185.606 251.495 184.715C251.495 183.824 251.46 183.065 251.39 182.44C251.324 181.815 251.217 181.308 251.068 180.921C250.923 180.529 250.732 180.244 250.494 180.067C250.26 179.885 249.976 179.794 249.64 179.794C249.313 179.794 249.033 179.883 248.8 180.06C248.571 180.237 248.384 180.52 248.24 180.907C248.095 181.294 247.99 181.801 247.925 182.426C247.859 183.051 247.827 183.814 247.827 184.715C247.827 185.611 247.859 186.367 247.925 186.983C247.99 187.599 248.093 188.094 248.233 188.467C248.377 188.84 248.564 189.111 248.793 189.279C249.026 189.447 249.308 189.531 249.64 189.531ZM258.513 190.147C258.004 190.147 257.53 190.012 257.092 189.741C256.653 189.466 256.268 189.083 255.937 188.593C255.61 188.098 255.353 187.522 255.167 186.864C254.985 186.206 254.894 185.492 254.894 184.722C254.894 183.943 254.985 183.219 255.167 182.552C255.353 181.88 255.61 181.294 255.937 180.795C256.268 180.291 256.653 179.899 257.092 179.619C257.53 179.334 258.004 179.192 258.513 179.192C259.021 179.192 259.497 179.334 259.941 179.619C260.384 179.904 260.771 180.298 261.103 180.802C261.439 181.306 261.7 181.894 261.887 182.566C262.078 183.233 262.174 183.952 262.174 184.722C262.174 185.487 262.08 186.199 261.894 186.857C261.712 187.515 261.453 188.091 261.117 188.586C260.785 189.076 260.398 189.459 259.955 189.734C259.511 190.009 259.031 190.147 258.513 190.147ZM258.513 189.531C258.849 189.531 259.136 189.447 259.374 189.279C259.612 189.106 259.803 188.833 259.948 188.46C260.092 188.082 260.197 187.587 260.263 186.976C260.333 186.36 260.368 185.606 260.368 184.715C260.368 183.824 260.333 183.065 260.263 182.44C260.197 181.815 260.09 181.308 259.941 180.921C259.796 180.529 259.605 180.244 259.367 180.067C259.133 179.885 258.849 179.794 258.513 179.794C258.186 179.794 257.906 179.883 257.673 180.06C257.444 180.237 257.257 180.52 257.113 180.907C256.968 181.294 256.863 181.801 256.798 182.426C256.732 183.051 256.7 183.814 256.7 184.715C256.7 185.611 256.732 186.367 256.798 186.983C256.863 187.599 256.966 188.094 257.106 188.467C257.25 188.84 257.437 189.111 257.666 189.279C257.899 189.447 258.181 189.531 258.513 189.531ZM266.988 193.465V193.192L268.052 192.961V183.77L267.023 183.399V183.182L269.256 182.517H269.424V183.714H269.48C269.76 183.299 270.103 182.995 270.509 182.804C270.92 182.613 271.335 182.517 271.755 182.517C272.339 182.517 272.85 182.678 273.288 183C273.732 183.317 274.077 183.754 274.324 184.309C274.576 184.864 274.702 185.499 274.702 186.213C274.702 186.983 274.539 187.664 274.212 188.257C273.886 188.85 273.431 189.314 272.847 189.65C272.269 189.981 271.592 190.147 270.817 190.147C270.593 190.147 270.372 190.128 270.152 190.091C269.933 190.058 269.711 190.005 269.487 189.93V192.961L270.915 193.192V193.465H266.988ZM270.873 189.678C271.326 189.678 271.723 189.54 272.063 189.265C272.404 188.99 272.668 188.609 272.854 188.124C273.046 187.634 273.141 187.072 273.141 186.437C273.141 185.508 272.952 184.778 272.574 184.246C272.201 183.714 271.69 183.448 271.041 183.448C270.757 183.448 270.465 183.525 270.166 183.679C269.868 183.828 269.658 184.017 269.536 184.246V188.299C269.536 188.7 269.665 189.032 269.921 189.293C270.183 189.55 270.5 189.678 270.873 189.678ZM275.755 190V189.692L276.798 189.475V183.784L275.769 183.399V183.196L277.981 182.517H278.163V183.728L278.233 183.798V189.475L279.262 189.692V190H275.755ZM280.179 190V189.692L281.215 189.489V185.212C281.215 184.549 281.11 184.073 280.9 183.784C280.695 183.49 280.363 183.343 279.906 183.343C279.551 183.343 279.213 183.432 278.891 183.609C278.574 183.782 278.296 184.031 278.058 184.358V183.77C278.45 183.373 278.882 183.065 279.353 182.846C279.829 182.627 280.296 182.517 280.753 182.517C281.392 182.517 281.866 182.685 282.174 183.021C282.482 183.352 282.636 183.87 282.636 184.575V189.489L283.672 189.692V190H280.179ZM284.589 190V189.692L285.618 189.489V185.17C285.618 184.507 285.518 184.038 285.317 183.763C285.121 183.483 284.787 183.343 284.316 183.343C283.938 183.343 283.593 183.432 283.28 183.609C282.972 183.782 282.701 184.031 282.468 184.358V183.77C282.827 183.355 283.25 183.042 283.735 182.832C284.22 182.622 284.71 182.517 285.205 182.517C285.83 182.517 286.288 182.687 286.577 183.028C286.866 183.369 287.02 183.905 287.039 184.638V189.489L288.075 189.692V190H284.589Z" fill="#DAC0A3"/>
<path d="M6.816 60.168C5.62133 60.168 4.568 59.9093 3.656 59.392C2.74933 58.8693 2.04 58.144 1.528 57.216C1.016 56.2827 0.76 55.2053 0.76 53.984C0.76 53.056 0.909333 52.2053 1.208 51.432C1.50667 50.6587 1.928 49.9893 2.472 49.424C3.02133 48.8587 3.66667 48.4213 4.408 48.112C5.15467 47.8027 5.976 47.648 6.872 47.648C7.52267 47.648 8.16533 47.7333 8.8 47.904C9.43467 48.0693 10.0053 48.3093 10.512 48.624H10.576L11.288 47.816H11.712V51.624H11.04C10.9387 51.336 10.832 51.0747 10.72 50.84C10.608 50.6 10.4853 50.3813 10.352 50.184C9.984 49.6027 9.54667 49.1813 9.04 48.92C8.53333 48.6533 7.944 48.52 7.272 48.52C6.024 48.52 5.07733 48.9707 4.432 49.872C3.78667 50.768 3.464 52.0907 3.464 53.84C3.464 55.5947 3.78667 56.9387 4.432 57.872C5.08267 58.8053 6.01333 59.272 7.224 59.272C7.86933 59.272 8.45333 59.136 8.976 58.864C9.49867 58.592 9.93333 58.2027 10.28 57.696C10.472 57.4293 10.6347 57.1253 10.768 56.784C10.9067 56.4427 11.0133 56.0747 11.088 55.68H11.712V60H11.184L10.52 58.96C9.91733 59.3813 9.32 59.688 8.728 59.88C8.136 60.072 7.49867 60.168 6.816 60.168ZM17.5191 60.168C16.6765 60.168 15.9405 59.992 15.3111 59.64C14.6818 59.2827 14.1911 58.7867 13.8391 58.152C13.4925 57.512 13.3191 56.7733 13.3191 55.936C13.3191 55.0453 13.5111 54.264 13.8951 53.592C14.2845 52.92 14.8231 52.3947 15.5111 52.016C16.2045 51.6373 17.0071 51.448 17.9191 51.448C19.0765 51.448 19.9591 51.768 20.5671 52.408C21.1805 53.048 21.5031 53.9893 21.5351 55.232L21.4151 55.328H14.7431V54.696L19.1751 54.536C19.2125 54.4133 19.2311 54.2107 19.2311 53.928C19.2311 52.7547 18.7325 52.168 17.7351 52.168C17.0685 52.168 16.5538 52.448 16.1911 53.008C15.8338 53.5627 15.6551 54.352 15.6551 55.376C15.6551 57.568 16.5058 58.664 18.2071 58.664C19.3591 58.664 20.2578 58.264 20.9031 57.464L21.2951 57.776C21.0125 58.5333 20.5378 59.1227 19.8711 59.544C19.2098 59.96 18.4258 60.168 17.5191 60.168ZM22.5185 60V59.512L23.7105 59.216V52.984L22.5185 52.536V52.208L25.5265 51.448H25.8145V52.984L25.8785 53.064V59.216L27.8145 59.512V60H22.5185ZM25.7265 54V53.064C26.1425 52.536 26.5532 52.1333 26.9585 51.856C27.3638 51.5733 27.7532 51.432 28.1265 51.432C28.4892 51.432 28.7905 51.5413 29.0305 51.76C29.2705 51.9733 29.3905 52.2373 29.3905 52.552C29.3905 52.8507 29.2972 53.104 29.1105 53.312C28.9292 53.5147 28.7025 53.616 28.4305 53.616C28.1585 53.616 27.9158 53.5173 27.7025 53.32C27.5638 53.1867 27.4412 53.0933 27.3345 53.04C27.2278 52.9813 27.1158 52.952 26.9985 52.952C26.8225 52.952 26.6092 53.0533 26.3585 53.256C26.1078 53.4587 25.8972 53.7067 25.7265 54ZM34.1598 60.168C33.3171 60.168 32.5811 59.992 31.9518 59.64C31.3224 59.2827 30.8318 58.7867 30.4798 58.152C30.1331 57.512 29.9598 56.7733 29.9598 55.936C29.9598 55.0453 30.1518 54.264 30.5358 53.592C30.9251 52.92 31.4638 52.3947 32.1518 52.016C32.8451 51.6373 33.6478 51.448 34.5598 51.448C35.7171 51.448 36.5998 51.768 37.2078 52.408C37.8211 53.048 38.1438 53.9893 38.1758 55.232L38.0558 55.328H31.3838V54.696L35.8158 54.536C35.8531 54.4133 35.8718 54.2107 35.8718 53.928C35.8718 52.7547 35.3731 52.168 34.3758 52.168C33.7091 52.168 33.1944 52.448 32.8318 53.008C32.4744 53.5627 32.2958 54.352 32.2958 55.376C32.2958 57.568 33.1464 58.664 34.8478 58.664C35.9998 58.664 36.8984 58.264 37.5438 57.464L37.9358 57.776C37.6531 58.5333 37.1784 59.1227 36.5118 59.544C35.8504 59.96 35.0664 60.168 34.1598 60.168ZM39.1431 60V59.512L40.3271 59.216V52.984L39.1671 52.544V52.224L41.9511 51.448H42.4471V52.648L42.5111 52.728V59.216L43.6471 59.512V60H39.1431ZM44.3591 60V59.512L45.4951 59.224V54.824C45.4951 54.0613 45.3805 53.5147 45.1511 53.184C44.9218 52.8533 44.5458 52.688 44.0231 52.688C43.6285 52.688 43.2791 52.7787 42.9751 52.96C42.6765 53.136 42.4098 53.3973 42.1751 53.744V52.84C42.5751 52.4133 43.0605 52.0747 43.6311 51.824C44.2018 51.5733 44.7725 51.448 45.3431 51.448C46.1378 51.448 46.7245 51.672 47.1031 52.12C47.4818 52.568 47.6711 53.2693 47.6711 54.224V59.224L48.8071 59.512V60H44.3591ZM49.5271 60V59.512L50.6551 59.224V54.808C50.6551 54.04 50.5485 53.4987 50.3351 53.184C50.1218 52.864 49.7538 52.704 49.2311 52.704C48.8365 52.704 48.4818 52.792 48.1671 52.968C47.8578 53.1387 47.5805 53.4 47.3351 53.752V52.84C47.7191 52.408 48.1991 52.0693 48.7751 51.824C49.3565 51.5733 49.9431 51.448 50.5351 51.448C51.3191 51.448 51.8951 51.6747 52.2631 52.128C52.6311 52.576 52.8205 53.2827 52.8311 54.248V59.224L53.9671 59.512V60H49.5271ZM59.3209 60.168C58.4035 60.168 57.6142 59.9733 56.9529 59.584C56.2915 59.1947 55.7849 58.6693 55.4329 58.008C55.0809 57.3467 54.9049 56.6133 54.9049 55.808C54.9049 54.9973 55.0809 54.264 55.4329 53.608C55.7849 52.9467 56.2915 52.4213 56.9529 52.032C57.6142 51.6427 58.4035 51.448 59.3209 51.448C60.2382 51.448 61.0249 51.6427 61.6809 52.032C62.3422 52.4213 62.8489 52.9467 63.2009 53.608C63.5582 54.264 63.7369 54.9973 63.7369 55.808C63.7369 56.6133 63.5582 57.3467 63.2009 58.008C62.8489 58.6693 62.3422 59.1947 61.6809 59.584C61.0249 59.9733 60.2382 60.168 59.3209 60.168ZM59.3209 59.376C59.7049 59.376 60.0275 59.272 60.2889 59.064C60.5502 58.856 60.7582 58.5787 60.9129 58.232C61.0675 57.88 61.1795 57.4933 61.2489 57.072C61.3182 56.6507 61.3529 56.2267 61.3529 55.8C61.3529 55.3787 61.3182 54.9573 61.2489 54.536C61.1849 54.1147 61.0755 53.7307 60.9209 53.384C60.7662 53.0373 60.5582 52.76 60.2969 52.552C60.0355 52.344 59.7102 52.24 59.3209 52.24C58.9315 52.24 58.6062 52.344 58.3449 52.552C58.0835 52.76 57.8755 53.0373 57.7209 53.384C57.5662 53.7307 57.4542 54.1173 57.3849 54.544C57.3209 54.9653 57.2889 55.3867 57.2889 55.808C57.2889 56.2347 57.3209 56.6587 57.3849 57.08C57.4542 57.496 57.5662 57.88 57.7209 58.232C57.8755 58.5787 58.0835 58.856 58.3449 59.064C58.6062 59.272 58.9315 59.376 59.3209 59.376ZM70.1918 60V59.512L71.3198 59.224V54.624C71.3198 53.9787 71.1891 53.5013 70.9278 53.192C70.6718 52.8773 70.2744 52.72 69.7358 52.72C69.0158 52.72 68.4318 53.0347 67.9838 53.664V52.776C68.3838 52.3707 68.8424 52.048 69.3598 51.808C69.8824 51.568 70.4451 51.448 71.0478 51.448C72.6851 51.448 73.5038 52.3067 73.5038 54.024V59.224L74.6878 59.512V60H70.1918ZM64.7918 60V59.512L65.9918 59.216V52.984L64.7918 52.544V52.224L67.7998 51.448H68.0878V52.824L68.1598 52.904V59.216L69.2958 59.512V60H64.7918ZM75.3924 60V59.512L76.7044 59.216V52.968L75.4004 52.544V52.208L78.6004 51.448H78.8884V59.216L80.1284 59.512V60H75.3924ZM77.7684 50.096C77.3684 50.096 77.059 49.9707 76.8404 49.72C76.6217 49.4693 76.5124 49.192 76.5124 48.888C76.5124 48.5573 76.6244 48.2693 76.8484 48.024C77.0724 47.7733 77.379 47.648 77.7684 47.648C78.1684 47.648 78.4857 47.7733 78.7204 48.024C78.955 48.2693 79.0724 48.5573 79.0724 48.888C79.0724 49.192 78.9604 49.4693 78.7364 49.72C78.5124 49.9707 78.1897 50.096 77.7684 50.096ZM83.0863 60.168C82.4676 60.168 81.9743 59.9973 81.6063 59.656C81.2383 59.3093 81.0543 58.848 81.0543 58.272C81.0543 57.7653 81.2116 57.328 81.5263 56.96C81.8463 56.5867 82.3423 56.272 83.0143 56.016C83.6863 55.7547 84.5503 55.5387 85.6063 55.368V54.096C85.6063 53.392 85.5316 52.9147 85.3823 52.664C85.2383 52.408 84.9636 52.28 84.5583 52.28C84.1476 52.28 83.8223 52.3787 83.5823 52.576C83.3423 52.7733 83.2223 53.0427 83.2223 53.384C83.2223 53.496 83.2303 53.608 83.2463 53.72C83.2676 53.832 83.2783 53.9413 83.2783 54.048C83.2783 54.3413 83.1796 54.584 82.9823 54.776C82.7903 54.968 82.5476 55.064 82.2543 55.064C81.9716 55.064 81.7423 54.9733 81.5663 54.792C81.3956 54.6053 81.3103 54.3653 81.3103 54.072C81.3103 53.736 81.4329 53.3973 81.6783 53.056C81.9236 52.7147 82.2596 52.4133 82.6863 52.152C83.4649 51.6827 84.3716 51.448 85.4062 51.448C85.9396 51.448 86.3769 51.5173 86.7183 51.656C87.0596 51.7947 87.3129 51.9947 87.4783 52.256C87.5903 52.448 87.6703 52.696 87.7183 53C87.7663 53.2987 87.7903 53.752 87.7903 54.36V57.728C87.7903 58.2133 87.8329 58.5573 87.9183 58.76C88.0089 58.9627 88.1636 59.064 88.3823 59.064C88.6276 59.064 88.8703 58.9307 89.1103 58.664L89.4462 59.096C89.1316 59.464 88.8036 59.736 88.4623 59.912C88.1263 60.0827 87.7476 60.168 87.3263 60.168C86.8356 60.168 86.4623 60.0613 86.2063 59.848C85.9503 59.6293 85.7823 59.2987 85.7023 58.856H85.6383C85.2756 59.288 84.8783 59.616 84.4462 59.84C84.0196 60.0587 83.5663 60.168 83.0863 60.168ZM84.3263 58.824C84.5823 58.824 84.8196 58.7707 85.0383 58.664C85.2623 58.5573 85.4516 58.4027 85.6063 58.2V56.032C85.0303 56.144 84.5769 56.272 84.2463 56.416C83.9156 56.5547 83.6836 56.728 83.5503 56.936C83.4169 57.1387 83.3503 57.3973 83.3503 57.712C83.3503 58.08 83.4303 58.3573 83.5903 58.544C83.7503 58.7307 83.9956 58.824 84.3263 58.824ZM0.456 80V79.512L1.648 79.216V72.984L0.456 72.536V72.208L3.464 71.448H3.752V72.984L3.816 73.064V79.216L5.752 79.512V80H0.456ZM3.664 74V73.064C4.08 72.536 4.49067 72.1333 4.896 71.856C5.30133 71.5733 5.69067 71.432 6.064 71.432C6.42667 71.432 6.728 71.5413 6.968 71.76C7.208 71.9733 7.328 72.2373 7.328 72.552C7.328 72.8507 7.23467 73.104 7.048 73.312C6.86667 73.5147 6.64 73.616 6.368 73.616C6.096 73.616 5.85333 73.5173 5.64 73.32C5.50133 73.1867 5.37867 73.0933 5.272 73.04C5.16533 72.9813 5.05333 72.952 4.936 72.952C4.76 72.952 4.54667 73.0533 4.296 73.256C4.04533 73.4587 3.83467 73.7067 3.664 74ZM12.0973 80.168C11.2546 80.168 10.5186 79.992 9.88925 79.64C9.25992 79.2827 8.76925 78.7867 8.41725 78.152C8.07058 77.512 7.89725 76.7733 7.89725 75.936C7.89725 75.0453 8.08925 74.264 8.47325 73.592C8.86258 72.92 9.40125 72.3947 10.0893 72.016C10.7826 71.6373 11.5853 71.448 12.4973 71.448C13.6546 71.448 14.5373 71.768 15.1453 72.408C15.7586 73.048 16.0813 73.9893 16.1133 75.232L15.9933 75.328H9.32125V74.696L13.7533 74.536C13.7906 74.4133 13.8093 74.2107 13.8093 73.928C13.8093 72.7547 13.3106 72.168 12.3133 72.168C11.6466 72.168 11.1319 72.448 10.7693 73.008C10.4119 73.5627 10.2333 74.352 10.2333 75.376C10.2333 77.568 11.0839 78.664 12.7853 78.664C13.9373 78.664 14.8359 78.264 15.4813 77.464L15.8733 77.776C15.5906 78.5333 15.1159 79.1227 14.4493 79.544C13.7879 79.96 13.0039 80.168 12.0973 80.168ZM16.9366 80V79.512L18.2486 79.216V68.376L16.9366 67.952V67.616L20.1366 66.856H20.4166V79.216L21.6646 79.512V80H16.9366ZM22.3924 80V79.512L23.7044 79.216V72.968L22.4004 72.544V72.208L25.6004 71.448H25.8884V79.216L27.1284 79.512V80H22.3924ZM24.7684 70.096C24.3684 70.096 24.059 69.9707 23.8404 69.72C23.6217 69.4693 23.5124 69.192 23.5124 68.888C23.5124 68.5573 23.6244 68.2693 23.8484 68.024C24.0724 67.7733 24.379 67.648 24.7684 67.648C25.1684 67.648 25.4857 67.7733 25.7204 68.024C25.955 68.2693 26.0724 68.5573 26.0724 68.888C26.0724 69.192 25.9604 69.4693 25.7364 69.72C25.5124 69.9707 25.1897 70.096 24.7684 70.096ZM33.6463 72.04C33.7476 71.7573 33.8783 71.472 34.0383 71.184C34.2036 70.896 34.4063 70.656 34.6463 70.464C34.8863 70.2667 35.1716 70.168 35.5023 70.168C35.8009 70.168 36.0543 70.248 36.2622 70.408C36.4703 70.568 36.5743 70.7867 36.5743 71.064C36.5743 71.288 36.4996 71.4907 36.3503 71.672C36.2009 71.848 35.9956 71.936 35.7343 71.936C35.5636 71.936 35.4329 71.9013 35.3423 71.832C35.2516 71.7627 35.1663 71.6933 35.0863 71.624C35.0116 71.5547 34.9049 71.52 34.7663 71.52C34.5849 71.52 34.4489 71.6053 34.3583 71.776C34.2676 71.9467 34.1983 72.144 34.1503 72.368L33.6463 72.04ZM31.7583 76.712C32.0889 76.712 32.3449 76.5867 32.5263 76.336C32.7129 76.08 32.8436 75.768 32.9183 75.4C32.9929 75.032 33.0303 74.6747 33.0303 74.328C33.0303 74.1093 33.0143 73.872 32.9823 73.616C32.9556 73.3547 32.8969 73.1093 32.8063 72.88C32.7209 72.6453 32.5983 72.4533 32.4383 72.304C32.2836 72.1493 32.0809 72.072 31.8303 72.072C31.5743 72.072 31.3609 72.1547 31.1903 72.32C31.0249 72.48 30.8943 72.688 30.7983 72.944C30.7076 73.2 30.6436 73.4693 30.6063 73.752C30.5689 74.0293 30.5503 74.2827 30.5503 74.512C30.5503 74.8 30.5823 75.1173 30.6463 75.464C30.7103 75.8053 30.8276 76.0987 30.9983 76.344C31.1743 76.5893 31.4276 76.712 31.7583 76.712ZM31.7503 77.36C31.1529 77.36 30.7343 77.4213 30.4943 77.544C30.2543 77.6613 30.1343 77.824 30.1343 78.032C30.1343 78.224 30.2703 78.3787 30.5423 78.496C30.8196 78.6133 31.3476 78.7387 32.1263 78.872L33.2783 79.072C34.2223 79.2267 34.9183 79.4853 35.3663 79.848C35.8196 80.2053 36.0463 80.688 36.0463 81.296C36.0463 81.8187 35.9023 82.2613 35.6143 82.624C35.3263 82.992 34.9423 83.288 34.4623 83.512C33.9876 83.7413 33.4569 83.9067 32.8703 84.008C32.2889 84.1147 31.6996 84.168 31.1023 84.168C30.6543 84.168 30.2116 84.1307 29.7743 84.056C29.3369 83.9813 28.9396 83.8613 28.5822 83.696C28.2249 83.536 27.9396 83.3227 27.7263 83.056C27.5129 82.7947 27.4062 82.4773 27.4062 82.104C27.4062 81.688 27.5716 81.3067 27.9023 80.96C28.2329 80.6187 28.7929 80.2933 29.5823 79.984L30.1903 80.232C29.8703 80.408 29.6196 80.6453 29.4383 80.944C29.2623 81.2427 29.1743 81.5573 29.1743 81.888C29.1743 82.2453 29.2836 82.5387 29.5023 82.768C29.7209 82.9973 30.0089 83.168 30.3663 83.28C30.7236 83.392 31.1049 83.448 31.5103 83.448C31.9583 83.448 32.4036 83.4 32.8463 83.304C33.2943 83.208 33.6649 83.0587 33.9583 82.856C34.2569 82.6533 34.4063 82.3893 34.4063 82.064C34.4063 81.872 34.3423 81.7013 34.2143 81.552C34.0863 81.4027 33.8516 81.264 33.5103 81.136C33.1743 81.0133 32.6943 80.8933 32.0703 80.776L30.7503 80.528C29.8863 80.3627 29.2676 80.1333 28.8943 79.84C28.5209 79.5413 28.3343 79.1787 28.3343 78.752C28.3343 78.496 28.4143 78.2507 28.5743 78.016C28.7343 77.776 28.9903 77.568 29.3423 77.392C29.6996 77.216 30.1689 77.0933 30.7503 77.024L31.7503 77.36ZM31.7503 77.36C31.1263 77.36 30.5529 77.2427 30.0303 77.008C29.5076 76.768 29.0889 76.4267 28.7743 75.984C28.4596 75.536 28.3023 75.008 28.3023 74.4C28.3023 73.8347 28.4516 73.3307 28.7503 72.888C29.0543 72.44 29.4676 72.088 29.9903 71.832C30.5129 71.576 31.1023 71.448 31.7583 71.448C32.3929 71.448 32.9769 71.5707 33.5103 71.816C34.0436 72.0613 34.4703 72.4027 34.7903 72.84C35.1156 73.2773 35.2783 73.784 35.2783 74.36C35.2783 74.8613 35.1316 75.344 34.8383 75.808C34.5449 76.2667 34.1343 76.64 33.6063 76.928C33.0783 77.216 32.4596 77.36 31.7503 77.36ZM36.7986 80V79.512L38.1106 79.216V72.968L36.8066 72.544V72.208L40.0066 71.448H40.2946V79.216L41.5346 79.512V80H36.7986ZM39.1746 70.096C38.7746 70.096 38.4653 69.9707 38.2466 69.72C38.028 69.4693 37.9186 69.192 37.9186 68.888C37.9186 68.5573 38.0306 68.2693 38.2546 68.024C38.4786 67.7733 38.7853 67.648 39.1746 67.648C39.5746 67.648 39.892 67.7733 40.1266 68.024C40.3613 68.2693 40.4786 68.5573 40.4786 68.888C40.4786 69.192 40.3666 69.4693 40.1426 69.72C39.9186 69.9707 39.596 70.096 39.1746 70.096ZM46.8365 80.168C45.9192 80.168 45.1298 79.9733 44.4685 79.584C43.8072 79.1947 43.3005 78.6693 42.9485 78.008C42.5965 77.3467 42.4205 76.6133 42.4205 75.808C42.4205 74.9973 42.5965 74.264 42.9485 73.608C43.3005 72.9467 43.8072 72.4213 44.4685 72.032C45.1298 71.6427 45.9192 71.448 46.8365 71.448C47.7538 71.448 48.5405 71.6427 49.1965 72.032C49.8578 72.4213 50.3645 72.9467 50.7165 73.608C51.0738 74.264 51.2525 74.9973 51.2525 75.808C51.2525 76.6133 51.0738 77.3467 50.7165 78.008C50.3645 78.6693 49.8578 79.1947 49.1965 79.584C48.5405 79.9733 47.7538 80.168 46.8365 80.168ZM46.8365 79.376C47.2205 79.376 47.5432 79.272 47.8045 79.064C48.0658 78.856 48.2738 78.5787 48.4285 78.232C48.5832 77.88 48.6952 77.4933 48.7645 77.072C48.8338 76.6507 48.8685 76.2267 48.8685 75.8C48.8685 75.3787 48.8338 74.9573 48.7645 74.536C48.7005 74.1147 48.5912 73.7307 48.4365 73.384C48.2818 73.0373 48.0738 72.76 47.8125 72.552C47.5512 72.344 47.2258 72.24 46.8365 72.24C46.4472 72.24 46.1218 72.344 45.8605 72.552C45.5992 72.76 45.3912 73.0373 45.2365 73.384C45.0818 73.7307 44.9698 74.1173 44.9005 74.544C44.8365 74.9653 44.8045 75.3867 44.8045 75.808C44.8045 76.2347 44.8365 76.6587 44.9005 77.08C44.9698 77.496 45.0818 77.88 45.2365 78.232C45.3912 78.5787 45.5992 78.856 45.8605 79.064C46.1218 79.272 46.4472 79.376 46.8365 79.376ZM55.1714 80.168C54.7874 80.168 54.374 80.136 53.9314 80.072C53.494 80.008 53.1154 79.9253 52.7954 79.824L52.6914 77.248H53.2834C53.3367 77.968 53.5234 78.5173 53.8434 78.896C54.1634 79.2747 54.606 79.464 55.1714 79.464C55.598 79.464 55.9394 79.352 56.1954 79.128C56.4567 78.8987 56.5874 78.6 56.5874 78.232C56.5874 77.9387 56.4887 77.68 56.2914 77.456C56.094 77.2267 55.7607 76.9893 55.2914 76.744L54.5554 76.376C53.91 76.04 53.438 75.6747 53.1394 75.28C52.846 74.8853 52.6994 74.4107 52.6994 73.856C52.6994 73.072 52.982 72.4747 53.5474 72.064C54.1127 71.6533 54.9394 71.448 56.0274 71.448C56.422 71.448 56.8034 71.4747 57.1714 71.528C57.5394 71.576 57.8327 71.6427 58.0514 71.728V73.92H57.5234C57.3687 72.7413 56.814 72.152 55.8594 72.152C55.4807 72.152 55.1767 72.248 54.9474 72.44C54.718 72.6267 54.6034 72.8773 54.6034 73.192C54.6034 73.4693 54.7047 73.7147 54.9074 73.928C55.11 74.1413 55.4594 74.368 55.9554 74.608L56.7074 74.984C57.31 75.288 57.75 75.64 58.0274 76.04C58.31 76.4347 58.4514 76.92 58.4514 77.496C58.4514 78.328 58.1607 78.9813 57.5794 79.456C57.0034 79.9307 56.2007 80.168 55.1714 80.168ZM61.805 80.168C61.1863 80.168 60.693 79.9973 60.325 79.656C59.957 79.3093 59.773 78.848 59.773 78.272C59.773 77.7653 59.9303 77.328 60.245 76.96C60.565 76.5867 61.061 76.272 61.733 76.016C62.405 75.7547 63.269 75.5387 64.325 75.368V74.096C64.325 73.392 64.2503 72.9147 64.101 72.664C63.957 72.408 63.6823 72.28 63.277 72.28C62.8663 72.28 62.541 72.3787 62.301 72.576C62.061 72.7733 61.941 73.0427 61.941 73.384C61.941 73.496 61.949 73.608 61.965 73.72C61.9863 73.832 61.997 73.9413 61.997 74.048C61.997 74.3413 61.8983 74.584 61.701 74.776C61.509 74.968 61.2663 75.064 60.973 75.064C60.6903 75.064 60.461 74.9733 60.285 74.792C60.1143 74.6053 60.029 74.3653 60.029 74.072C60.029 73.736 60.1517 73.3973 60.397 73.056C60.6423 72.7147 60.9783 72.4133 61.405 72.152C62.1837 71.6827 63.0903 71.448 64.125 71.448C64.6583 71.448 65.0957 71.5173 65.437 71.656C65.7783 71.7947 66.0317 71.9947 66.197 72.256C66.309 72.448 66.389 72.696 66.437 73C66.485 73.2987 66.509 73.752 66.509 74.36V77.728C66.509 78.2133 66.5517 78.5573 66.637 78.76C66.7277 78.9627 66.8823 79.064 67.101 79.064C67.3463 79.064 67.589 78.9307 67.829 78.664L68.165 79.096C67.8503 79.464 67.5223 79.736 67.181 79.912C66.845 80.0827 66.4663 80.168 66.045 80.168C65.5543 80.168 65.181 80.0613 64.925 79.848C64.669 79.6293 64.501 79.2987 64.421 78.856H64.357C63.9943 79.288 63.597 79.616 63.165 79.84C62.7383 80.0587 62.285 80.168 61.805 80.168ZM63.045 78.824C63.301 78.824 63.5383 78.7707 63.757 78.664C63.981 78.5573 64.1703 78.4027 64.325 78.2V76.032C63.749 76.144 63.2957 76.272 62.965 76.416C62.6343 76.5547 62.4023 76.728 62.269 76.936C62.1357 77.1387 62.069 77.3973 62.069 77.712C62.069 78.08 62.149 78.3573 62.309 78.544C62.469 78.7307 62.7143 78.824 63.045 78.824Z" fill="#102C57"/>
<path d="M4.165 102.147C3.09633 102.147 2.25867 101.799 1.652 101.104C1.05 100.409 0.749 99.4543 0.749 98.241C0.749 97.2143 0.966 96.2413 1.4 95.322C1.834 94.4027 2.443 93.5883 3.227 92.879C4.01567 92.1697 4.942 91.6213 6.006 91.234L6.139 91.612C5.733 91.8267 5.334 92.1137 4.942 92.473C4.55467 92.8277 4.19767 93.2243 3.871 93.663C3.54433 94.097 3.27367 94.5403 3.059 94.993C2.84433 95.441 2.709 95.868 2.653 96.274C2.849 96.0547 3.13133 95.8797 3.5 95.749C3.87333 95.6183 4.26767 95.553 4.683 95.553C5.28033 95.553 5.80533 95.6883 6.258 95.959C6.71067 96.225 7.063 96.5983 7.315 97.079C7.57167 97.555 7.7 98.108 7.7 98.738C7.7 99.4053 7.54833 99.9957 7.245 100.509C6.94633 101.022 6.531 101.424 5.999 101.713C5.47167 102.002 4.86033 102.147 4.165 102.147ZM4.263 101.482C4.78567 101.482 5.201 101.256 5.509 100.803C5.817 100.35 5.971 99.739 5.971 98.969C5.971 98.171 5.80533 97.541 5.474 97.079C5.14733 96.6123 4.70167 96.379 4.137 96.379C3.829 96.379 3.53967 96.4467 3.269 96.582C3.003 96.7173 2.78833 96.8993 2.625 97.128C2.57833 97.338 2.53867 97.583 2.506 97.863C2.478 98.143 2.464 98.4113 2.464 98.668C2.464 99.536 2.625 100.222 2.947 100.726C3.27367 101.23 3.71233 101.482 4.263 101.482ZM10.1701 97.436C9.87146 97.436 9.63346 97.3403 9.45613 97.149C9.28346 96.953 9.19713 96.7267 9.19713 96.47C9.19713 96.1853 9.28346 95.9473 9.45613 95.756C9.63346 95.5647 9.87146 95.469 10.1701 95.469C10.4828 95.469 10.7278 95.5647 10.9051 95.756C11.0825 95.9473 11.1711 96.1853 11.1711 96.47C11.1711 96.7267 11.0825 96.953 10.9051 97.149C10.7325 97.3403 10.4875 97.436 10.1701 97.436ZM10.1701 102.147C9.87146 102.147 9.63346 102.049 9.45613 101.853C9.28346 101.657 9.19713 101.428 9.19713 101.167C9.19713 100.892 9.28346 100.658 9.45613 100.467C9.63346 100.276 9.87146 100.18 10.1701 100.18C10.4828 100.18 10.7278 100.276 10.9051 100.467C11.0825 100.658 11.1711 100.892 11.1711 101.167C11.1711 101.428 11.0825 101.657 10.9051 101.853C10.7325 102.049 10.4875 102.147 10.1701 102.147ZM16.544 102.147C16.0353 102.147 15.5616 102.012 15.123 101.741C14.6843 101.466 14.2993 101.083 13.968 100.593C13.6413 100.098 13.3846 99.522 13.198 98.864C13.016 98.206 12.925 97.492 12.925 96.722C12.925 95.9427 13.016 95.2193 13.198 94.552C13.3846 93.88 13.6413 93.2943 13.968 92.795C14.2993 92.291 14.6843 91.899 15.123 91.619C15.5616 91.3343 16.0353 91.192 16.544 91.192C17.0526 91.192 17.5286 91.3343 17.972 91.619C18.4153 91.9037 18.8026 92.298 19.134 92.802C19.47 93.306 19.7313 93.894 19.918 94.566C20.1093 95.2333 20.205 95.952 20.205 96.722C20.205 97.4873 20.1116 98.199 19.925 98.857C19.743 99.515 19.484 100.091 19.148 100.586C18.8166 101.076 18.4293 101.459 17.986 101.734C17.5426 102.009 17.062 102.147 16.544 102.147ZM16.544 101.531C16.88 101.531 17.167 101.447 17.405 101.279C17.643 101.106 17.8343 100.833 17.979 100.46C18.1236 100.082 18.2286 99.5873 18.294 98.976C18.364 98.36 18.399 97.6063 18.399 96.715C18.399 95.8237 18.364 95.0653 18.294 94.44C18.2286 93.8147 18.1213 93.3083 17.972 92.921C17.8273 92.529 17.636 92.2443 17.398 92.067C17.1646 91.885 16.88 91.794 16.544 91.794C16.2173 91.794 15.9373 91.8827 15.704 92.06C15.4753 92.2373 15.2886 92.5197 15.144 92.907C14.9993 93.2943 14.8943 93.8007 14.829 94.426C14.7636 95.0513 14.731 95.8143 14.731 96.715C14.731 97.611 14.7636 98.367 14.829 98.983C14.8943 99.599 14.997 100.094 15.137 100.467C15.2816 100.84 15.4683 101.111 15.697 101.279C15.9303 101.447 16.2126 101.531 16.544 101.531ZM25.417 102.147C24.9083 102.147 24.4347 102.012 23.996 101.741C23.5573 101.466 23.1723 101.083 22.841 100.593C22.5143 100.098 22.2577 99.522 22.071 98.864C21.889 98.206 21.798 97.492 21.798 96.722C21.798 95.9427 21.889 95.2193 22.071 94.552C22.2577 93.88 22.5143 93.2943 22.841 92.795C23.1723 92.291 23.5573 91.899 23.996 91.619C24.4347 91.3343 24.9083 91.192 25.417 91.192C25.9257 91.192 26.4017 91.3343 26.845 91.619C27.2883 91.9037 27.6757 92.298 28.007 92.802C28.343 93.306 28.6043 93.894 28.791 94.566C28.9823 95.2333 29.078 95.952 29.078 96.722C29.078 97.4873 28.9847 98.199 28.798 98.857C28.616 99.515 28.357 100.091 28.021 100.586C27.6897 101.076 27.3023 101.459 26.859 101.734C26.4157 102.009 25.935 102.147 25.417 102.147ZM25.417 101.531C25.753 101.531 26.04 101.447 26.278 101.279C26.516 101.106 26.7073 100.833 26.852 100.46C26.9967 100.082 27.1017 99.5873 27.167 98.976C27.237 98.36 27.272 97.6063 27.272 96.715C27.272 95.8237 27.237 95.0653 27.167 94.44C27.1017 93.8147 26.9943 93.3083 26.845 92.921C26.7003 92.529 26.509 92.2443 26.271 92.067C26.0377 91.885 25.753 91.794 25.417 91.794C25.0903 91.794 24.8103 91.8827 24.577 92.06C24.3483 92.2373 24.1617 92.5197 24.017 92.907C23.8723 93.2943 23.7673 93.8007 23.702 94.426C23.6367 95.0513 23.604 95.8143 23.604 96.715C23.604 97.611 23.6367 98.367 23.702 98.983C23.7673 99.599 23.87 100.094 24.01 100.467C24.1547 100.84 24.3413 101.111 24.57 101.279C24.8033 101.447 25.0857 101.531 25.417 101.531ZM33.8925 105.465V105.192L34.9565 104.961V95.77L33.9275 95.399V95.182L36.1605 94.517H36.3285V95.714H36.3845C36.6645 95.2987 37.0075 94.9953 37.4135 94.804C37.8241 94.6127 38.2395 94.517 38.6595 94.517C39.2428 94.517 39.7538 94.678 40.1925 95C40.6358 95.3173 40.9811 95.7537 41.2285 96.309C41.4805 96.8643 41.6065 97.499 41.6065 98.213C41.6065 98.983 41.4431 99.6643 41.1165 100.257C40.7898 100.85 40.3348 101.314 39.7515 101.65C39.1728 101.981 38.4961 102.147 37.7215 102.147C37.4975 102.147 37.2758 102.128 37.0565 102.091C36.8371 102.058 36.6155 102.005 36.3915 101.93V104.961L37.8195 105.192V105.465H33.8925ZM37.7775 101.678C38.2301 101.678 38.6268 101.54 38.9675 101.265C39.3081 100.99 39.5718 100.609 39.7585 100.124C39.9498 99.634 40.0455 99.0717 40.0455 98.437C40.0455 97.5083 39.8565 96.778 39.4785 96.246C39.1051 95.714 38.5941 95.448 37.9455 95.448C37.6608 95.448 37.3691 95.525 37.0705 95.679C36.7718 95.8283 36.5618 96.0173 36.4405 96.246V100.299C36.4405 100.7 36.5688 101.032 36.8255 101.293C37.0868 101.55 37.4041 101.678 37.7775 101.678ZM42.6594 102V101.692L43.7024 101.475V95.784L42.6734 95.399V95.196L44.8854 94.517H45.0674V95.728L45.1374 95.798V101.475L46.1664 101.692V102H42.6594ZM47.0834 102V101.692L48.1194 101.489V97.212C48.1194 96.5493 48.0144 96.0733 47.8044 95.784C47.5991 95.49 47.2678 95.343 46.8104 95.343C46.4558 95.343 46.1174 95.4317 45.7954 95.609C45.4781 95.7817 45.2004 96.0313 44.9624 96.358V95.77C45.3544 95.3733 45.7861 95.0653 46.2574 94.846C46.7334 94.6267 47.2001 94.517 47.6574 94.517C48.2968 94.517 48.7704 94.685 49.0784 95.021C49.3864 95.3523 49.5404 95.8703 49.5404 96.575V101.489L50.5764 101.692V102H47.0834ZM51.4934 102V101.692L52.5224 101.489V97.17C52.5224 96.5073 52.4221 96.0383 52.2214 95.763C52.0254 95.483 51.6918 95.343 51.2204 95.343C50.8424 95.343 50.4971 95.4317 50.1844 95.609C49.8764 95.7817 49.6058 96.0313 49.3724 96.358V95.77C49.7318 95.3547 50.1541 95.042 50.6394 94.832C51.1248 94.622 51.6148 94.517 52.1094 94.517C52.7348 94.517 53.1921 94.6873 53.4814 95.028C53.7708 95.3687 53.9248 95.9053 53.9434 96.638V101.489L54.9794 101.692V102H51.4934Z" fill="#DAC0A3"/>
<path d="M93 75H163" stroke="#DAC0A3" stroke-width="2" stroke-linecap="round" stroke-dasharray="4 4"/>
<g clip-path="url(#clip1_10_237)">
<path fill-rule="evenodd" clip-rule="evenodd" d="M206.5 61.5C206.5 60.6716 205.828 60 205 60C204.172 60 203.5 60.6716 203.5 61.5V63H202C201.172 63 200.5 63.6716 200.5 64.5C200.5 65.3284 201.172 66 202 66H203.5V68.25L198.1 72.3C197.722 72.5833 197.5 73.0278 197.5 73.5V75.6972L193.668 78.2519C193.251 78.5301 193 78.9984 193 79.5V87C192.172 87 191.5 87.6716 191.5 88.5C191.5 89.3284 192.172 90 193 90H217C217.828 90 218.5 89.3284 218.5 88.5C218.5 87.6716 217.828 87 217 87V79.5C217 78.9984 216.749 78.5301 216.332 78.2519L212.5 75.6972V73.5C212.5 73.0278 212.278 72.5833 211.9 72.3L206.5 68.25V66H208C208.828 66 209.5 65.3284 209.5 64.5C209.5 63.6716 208.828 63 208 63H206.5V61.5ZM208 82.5V87H202V82.5C202 80.8431 203.343 79.5 205 79.5C206.657 79.5 208 80.8431 208 82.5Z" fill="#102C57"/>
</g>
<path d="M0.696 236V235.48L2.048 235.144V224.656L0.696 224.328V223.816H5.848C6.62667 223.816 7.272 223.869 7.784 223.976C8.30133 224.077 8.73333 224.237 9.08 224.456C9.48 224.717 9.792 225.051 10.016 225.456C10.24 225.861 10.352 226.299 10.352 226.768C10.352 227.424 10.104 227.979 9.608 228.432C9.11733 228.885 8.416 229.195 7.504 229.36V229.424C8.192 229.493 8.792 229.68 9.304 229.984C9.82133 230.283 10.2213 230.669 10.504 231.144C10.792 231.619 10.936 232.16 10.936 232.768C10.936 233.253 10.832 233.707 10.624 234.128C10.4213 234.549 10.144 234.896 9.792 235.168C9.39733 235.467 8.92 235.68 8.36 235.808C7.8 235.936 7.056 236 6.128 236H0.696ZM5.728 235.232C6.60267 235.232 7.248 235.021 7.664 234.6C8.08 234.179 8.288 233.523 8.288 232.632C8.288 231.693 8.04 231.005 7.544 230.568C7.05333 230.125 6.29067 229.904 5.256 229.904H4.464V234.288C4.464 234.656 4.552 234.907 4.728 235.04C4.90933 235.168 5.24267 235.232 5.728 235.232ZM4.464 229.12H4.872C5.09067 229.12 5.27733 229.117 5.432 229.112C5.592 229.101 5.73333 229.088 5.856 229.072C6.47467 229.008 6.94933 228.781 7.28 228.392C7.61067 228.003 7.776 227.472 7.776 226.8C7.776 226.427 7.72267 226.107 7.616 225.84C7.50933 225.573 7.34933 225.349 7.136 225.168C6.90667 224.965 6.624 224.821 6.288 224.736C5.952 224.645 5.54133 224.6 5.056 224.6H4.464V229.12ZM14.3363 236.168C13.7176 236.168 13.2243 235.997 12.8563 235.656C12.4883 235.309 12.3043 234.848 12.3043 234.272C12.3043 233.765 12.4616 233.328 12.7763 232.96C13.0963 232.587 13.5923 232.272 14.2643 232.016C14.9363 231.755 15.8003 231.539 16.8563 231.368V230.096C16.8563 229.392 16.7816 228.915 16.6323 228.664C16.4883 228.408 16.2136 228.28 15.8083 228.28C15.3976 228.28 15.0723 228.379 14.8323 228.576C14.5923 228.773 14.4723 229.043 14.4723 229.384C14.4723 229.496 14.4803 229.608 14.4963 229.72C14.5176 229.832 14.5283 229.941 14.5283 230.048C14.5283 230.341 14.4296 230.584 14.2323 230.776C14.0403 230.968 13.7976 231.064 13.5043 231.064C13.2216 231.064 12.9923 230.973 12.8163 230.792C12.6456 230.605 12.5603 230.365 12.5603 230.072C12.5603 229.736 12.6829 229.397 12.9283 229.056C13.1736 228.715 13.5096 228.413 13.9363 228.152C14.7149 227.683 15.6216 227.448 16.6562 227.448C17.1896 227.448 17.6269 227.517 17.9683 227.656C18.3096 227.795 18.5629 227.995 18.7283 228.256C18.8403 228.448 18.9203 228.696 18.9683 229C19.0163 229.299 19.0403 229.752 19.0403 230.36V233.728C19.0403 234.213 19.0829 234.557 19.1683 234.76C19.2589 234.963 19.4136 235.064 19.6323 235.064C19.8776 235.064 20.1203 234.931 20.3603 234.664L20.6962 235.096C20.3816 235.464 20.0536 235.736 19.7123 235.912C19.3763 236.083 18.9976 236.168 18.5763 236.168C18.0856 236.168 17.7123 236.061 17.4563 235.848C17.2003 235.629 17.0323 235.299 16.9523 234.856H16.8883C16.5256 235.288 16.1283 235.616 15.6962 235.84C15.2696 236.059 14.8163 236.168 14.3363 236.168ZM15.5763 234.824C15.8323 234.824 16.0696 234.771 16.2883 234.664C16.5123 234.557 16.7016 234.403 16.8563 234.2V232.032C16.2803 232.144 15.8269 232.272 15.4963 232.416C15.1656 232.555 14.9336 232.728 14.8003 232.936C14.6669 233.139 14.6003 233.397 14.6003 233.712C14.6003 234.08 14.6803 234.357 14.8403 234.544C15.0003 234.731 15.2456 234.824 15.5763 234.824ZM26.4886 236V235.512L27.6166 235.224V230.624C27.6166 229.979 27.486 229.501 27.2246 229.192C26.9686 228.877 26.5713 228.72 26.0326 228.72C25.3126 228.72 24.7286 229.035 24.2806 229.664V228.776C24.6806 228.371 25.1393 228.048 25.6566 227.808C26.1793 227.568 26.742 227.448 27.3446 227.448C28.982 227.448 29.8006 228.307 29.8006 230.024V235.224L30.9846 235.512V236H26.4886ZM21.0886 236V235.512L22.2886 235.216V228.984L21.0886 228.544V228.224L24.0966 227.448H24.3846V228.824L24.4566 228.904V235.216L25.5926 235.512V236H21.0886ZM36.0733 239.96V239.608L38.0413 239.24V235.08C37.3426 235.805 36.4893 236.168 35.4813 236.168C34.7826 236.168 34.1639 236 33.6253 235.664C33.0919 235.323 32.6733 234.851 32.3693 234.248C32.0706 233.64 31.9213 232.941 31.9213 232.152C31.9213 231.187 32.1026 230.352 32.4653 229.648C32.8279 228.944 33.3319 228.403 33.9773 228.024C34.6279 227.64 35.3826 227.448 36.2413 227.448C37.1053 227.448 37.8946 227.691 38.6093 228.176H38.6893L39.8253 227.648H40.2173V239.24L41.5293 239.608V239.96H36.0733ZM36.3853 235.104C36.7266 235.104 37.0386 235.029 37.3213 234.88C37.6039 234.731 37.8439 234.528 38.0413 234.272V230.2C38.0413 229.597 37.8946 229.115 37.6013 228.752C37.3079 228.384 36.9293 228.2 36.4653 228.2C35.8252 228.2 35.3133 228.493 34.9293 229.08C34.5506 229.667 34.3613 230.541 34.3613 231.704C34.3613 232.771 34.5373 233.605 34.8893 234.208C35.2466 234.805 35.7453 235.104 36.3853 235.104ZM45.42 236.168C44.604 236.168 43.988 235.952 43.572 235.52C43.1613 235.083 42.956 234.445 42.956 233.608V228.392L41.772 228.096V227.608H45.132V233.032C45.132 233.747 45.26 234.232 45.516 234.488C45.772 234.744 46.156 234.872 46.668 234.872C47.0147 234.872 47.3453 234.779 47.66 234.592C47.98 234.405 48.244 234.115 48.452 233.72V234.688C48.0787 235.136 47.6253 235.496 47.092 235.768C46.5587 236.035 46.0013 236.168 45.42 236.168ZM48.204 236.168V234.856L48.116 234.784V228.392L46.988 228.096V227.608H50.3V234.648L51.46 235.072V235.384L48.484 236.168H48.204ZM56.6754 236.168C55.8327 236.168 55.0967 235.992 54.4674 235.64C53.838 235.283 53.3474 234.787 52.9954 234.152C52.6487 233.512 52.4754 232.773 52.4754 231.936C52.4754 231.045 52.6674 230.264 53.0514 229.592C53.4407 228.92 53.9794 228.395 54.6674 228.016C55.3607 227.637 56.1634 227.448 57.0754 227.448C58.2327 227.448 59.1154 227.768 59.7234 228.408C60.3367 229.048 60.6594 229.989 60.6914 231.232L60.5714 231.328H53.8994V230.696L58.3314 230.536C58.3687 230.413 58.3874 230.211 58.3874 229.928C58.3874 228.755 57.8887 228.168 56.8914 228.168C56.2247 228.168 55.71 228.448 55.3474 229.008C54.99 229.563 54.8114 230.352 54.8114 231.376C54.8114 233.568 55.662 234.664 57.3634 234.664C58.5154 234.664 59.414 234.264 60.0594 233.464L60.4514 233.776C60.1687 234.533 59.694 235.123 59.0274 235.544C58.366 235.96 57.582 236.168 56.6754 236.168ZM64.8348 236.168C64.0881 236.168 63.5468 235.995 63.2108 235.648C62.8801 235.296 62.7148 234.752 62.7148 234.016V228.336H61.6188L61.5388 227.912L64.4668 225.496L64.8988 225.56V227.608H67.2908L67.0908 228.336H64.8988V233.856C64.8988 234.709 65.2241 235.136 65.8748 235.136C66.0668 235.136 66.2534 235.096 66.4348 235.016C66.6161 234.936 66.7788 234.808 66.9228 234.632L67.2588 235.056C66.9921 235.413 66.6454 235.688 66.2188 235.88C65.7921 236.072 65.3308 236.168 64.8348 236.168ZM72.2066 236.168C71.364 236.168 70.628 235.992 69.9986 235.64C69.3693 235.283 68.8786 234.787 68.5266 234.152C68.18 233.512 68.0066 232.773 68.0066 231.936C68.0066 231.045 68.1986 230.264 68.5826 229.592C68.972 228.92 69.5106 228.395 70.1986 228.016C70.892 227.637 71.6946 227.448 72.6066 227.448C73.764 227.448 74.6466 227.768 75.2546 228.408C75.868 229.048 76.1906 229.989 76.2226 231.232L76.1026 231.328H69.4306V230.696L73.8626 230.536C73.9 230.413 73.9186 230.211 73.9186 229.928C73.9186 228.755 73.42 228.168 72.4226 228.168C71.756 228.168 71.2413 228.448 70.8786 229.008C70.5213 229.563 70.3426 230.352 70.3426 231.376C70.3426 233.568 71.1933 234.664 72.8946 234.664C74.0466 234.664 74.9453 234.264 75.5906 233.464L75.9826 233.776C75.7 234.533 75.2253 235.123 74.5586 235.544C73.8973 235.96 73.1133 236.168 72.2066 236.168Z" fill="#102C57"/>
<path d="M4.417 258.147C3.90833 258.147 3.43467 258.012 2.996 257.741C2.55733 257.466 2.17233 257.083 1.841 256.593C1.51433 256.098 1.25767 255.522 1.071 254.864C0.889 254.206 0.798 253.492 0.798 252.722C0.798 251.943 0.889 251.219 1.071 250.552C1.25767 249.88 1.51433 249.294 1.841 248.795C2.17233 248.291 2.55733 247.899 2.996 247.619C3.43467 247.334 3.90833 247.192 4.417 247.192C4.92567 247.192 5.40167 247.334 5.845 247.619C6.28833 247.904 6.67567 248.298 7.007 248.802C7.343 249.306 7.60433 249.894 7.791 250.566C7.98233 251.233 8.078 251.952 8.078 252.722C8.078 253.487 7.98467 254.199 7.798 254.857C7.616 255.515 7.357 256.091 7.021 256.586C6.68967 257.076 6.30233 257.459 5.859 257.734C5.41567 258.009 4.935 258.147 4.417 258.147ZM4.417 257.531C4.753 257.531 5.04 257.447 5.278 257.279C5.516 257.106 5.70733 256.833 5.852 256.46C5.99667 256.082 6.10167 255.587 6.167 254.976C6.237 254.36 6.272 253.606 6.272 252.715C6.272 251.824 6.237 251.065 6.167 250.44C6.10167 249.815 5.99433 249.308 5.845 248.921C5.70033 248.529 5.509 248.244 5.271 248.067C5.03767 247.885 4.753 247.794 4.417 247.794C4.09033 247.794 3.81033 247.883 3.577 248.06C3.34833 248.237 3.16167 248.52 3.017 248.907C2.87233 249.294 2.76733 249.801 2.702 250.426C2.63667 251.051 2.604 251.814 2.604 252.715C2.604 253.611 2.63667 254.367 2.702 254.983C2.76733 255.599 2.87 256.094 3.01 256.467C3.15467 256.84 3.34133 257.111 3.57 257.279C3.80333 257.447 4.08567 257.531 4.417 257.531ZM11.064 258.147L10.931 257.769C11.337 257.55 11.736 257.26 12.128 256.901C12.52 256.542 12.877 256.143 13.199 255.704C13.5257 255.265 13.7964 254.82 14.011 254.367C14.2257 253.91 14.3587 253.478 14.41 253.072C14.2187 253.291 13.9364 253.469 13.563 253.604C13.1944 253.735 12.8024 253.8 12.387 253.8C11.799 253.8 11.2764 253.667 10.819 253.401C10.3664 253.13 10.0117 252.759 9.75505 252.288C9.49838 251.812 9.37005 251.264 9.37005 250.643C9.37005 249.971 9.51938 249.381 9.81805 248.872C10.1167 248.359 10.532 247.957 11.064 247.668C11.596 247.379 12.2074 247.234 12.898 247.234C13.9714 247.234 14.8114 247.582 15.418 248.277C16.0247 248.968 16.328 249.92 16.328 251.133C16.328 252.155 16.111 253.128 15.677 254.052C15.243 254.971 14.6317 255.786 13.843 256.495C13.0544 257.204 12.128 257.755 11.064 258.147ZM12.933 252.967C13.241 252.967 13.5304 252.902 13.801 252.771C14.0717 252.636 14.2864 252.456 14.445 252.232C14.4964 252.027 14.536 251.784 14.564 251.504C14.5967 251.224 14.613 250.958 14.613 250.706C14.613 249.838 14.4497 249.152 14.123 248.648C13.801 248.144 13.3647 247.892 12.814 247.892C12.296 247.892 11.8807 248.118 11.568 248.571C11.26 249.024 11.106 249.637 11.106 250.412C11.106 251.201 11.2694 251.824 11.596 252.281C11.9274 252.738 12.373 252.967 12.933 252.967ZM19.0432 253.436C18.7445 253.436 18.5065 253.34 18.3292 253.149C18.1565 252.953 18.0702 252.727 18.0702 252.47C18.0702 252.185 18.1565 251.947 18.3292 251.756C18.5065 251.565 18.7445 251.469 19.0432 251.469C19.3558 251.469 19.6008 251.565 19.7782 251.756C19.9555 251.947 20.0442 252.185 20.0442 252.47C20.0442 252.727 19.9555 252.953 19.7782 253.149C19.6055 253.34 19.3605 253.436 19.0432 253.436ZM19.0432 258.147C18.7445 258.147 18.5065 258.049 18.3292 257.853C18.1565 257.657 18.0702 257.428 18.0702 257.167C18.0702 256.892 18.1565 256.658 18.3292 256.467C18.5065 256.276 18.7445 256.18 19.0432 256.18C19.3558 256.18 19.6008 256.276 19.7782 256.467C19.9555 256.658 20.0442 256.892 20.0442 257.167C20.0442 257.428 19.9555 257.657 19.7782 257.853C19.6055 258.049 19.3605 258.147 19.0432 258.147ZM25.417 258.147C24.9083 258.147 24.4347 258.012 23.996 257.741C23.5573 257.466 23.1723 257.083 22.841 256.593C22.5143 256.098 22.2577 255.522 22.071 254.864C21.889 254.206 21.798 253.492 21.798 252.722C21.798 251.943 21.889 251.219 22.071 250.552C22.2577 249.88 22.5143 249.294 22.841 248.795C23.1723 248.291 23.5573 247.899 23.996 247.619C24.4347 247.334 24.9083 247.192 25.417 247.192C25.9257 247.192 26.4017 247.334 26.845 247.619C27.2883 247.904 27.6757 248.298 28.007 248.802C28.343 249.306 28.6043 249.894 28.791 250.566C28.9823 251.233 29.078 251.952 29.078 252.722C29.078 253.487 28.9847 254.199 28.798 254.857C28.616 255.515 28.357 256.091 28.021 256.586C27.6897 257.076 27.3023 257.459 26.859 257.734C26.4157 258.009 25.935 258.147 25.417 258.147ZM25.417 257.531C25.753 257.531 26.04 257.447 26.278 257.279C26.516 257.106 26.7073 256.833 26.852 256.46C26.9967 256.082 27.1017 255.587 27.167 254.976C27.237 254.36 27.272 253.606 27.272 252.715C27.272 251.824 27.237 251.065 27.167 250.44C27.1017 249.815 26.9943 249.308 26.845 248.921C26.7003 248.529 26.509 248.244 26.271 248.067C26.0377 247.885 25.753 247.794 25.417 247.794C25.0903 247.794 24.8103 247.883 24.577 248.06C24.3483 248.237 24.1617 248.52 24.017 248.907C23.8723 249.294 23.7673 249.801 23.702 250.426C23.6367 251.051 23.604 251.814 23.604 252.715C23.604 253.611 23.6367 254.367 23.702 254.983C23.7673 255.599 23.87 256.094 24.01 256.467C24.1547 256.84 24.3413 257.111 24.57 257.279C24.8033 257.447 25.0857 257.531 25.417 257.531ZM34.29 258.147C33.7814 258.147 33.3077 258.012 32.869 257.741C32.4304 257.466 32.0454 257.083 31.714 256.593C31.3874 256.098 31.1307 255.522 30.944 254.864C30.762 254.206 30.671 253.492 30.671 252.722C30.671 251.943 30.762 251.219 30.944 250.552C31.1307 249.88 31.3874 249.294 31.714 248.795C32.0454 248.291 32.4304 247.899 32.869 247.619C33.3077 247.334 33.7814 247.192 34.29 247.192C34.7987 247.192 35.2747 247.334 35.718 247.619C36.1614 247.904 36.5487 248.298 36.88 248.802C37.216 249.306 37.4774 249.894 37.664 250.566C37.8554 251.233 37.951 251.952 37.951 252.722C37.951 253.487 37.8577 254.199 37.671 254.857C37.489 255.515 37.23 256.091 36.894 256.586C36.5627 257.076 36.1754 257.459 35.732 257.734C35.2887 258.009 34.808 258.147 34.29 258.147ZM34.29 257.531C34.626 257.531 34.913 257.447 35.151 257.279C35.389 257.106 35.5804 256.833 35.725 256.46C35.8697 256.082 35.9747 255.587 36.04 254.976C36.11 254.36 36.145 253.606 36.145 252.715C36.145 251.824 36.11 251.065 36.04 250.44C35.9747 249.815 35.8674 249.308 35.718 248.921C35.5734 248.529 35.382 248.244 35.144 248.067C34.9107 247.885 34.626 247.794 34.29 247.794C33.9634 247.794 33.6834 247.883 33.45 248.06C33.2214 248.237 33.0347 248.52 32.89 248.907C32.7454 249.294 32.6404 249.801 32.575 250.426C32.5097 251.051 32.477 251.814 32.477 252.715C32.477 253.611 32.5097 254.367 32.575 254.983C32.6404 255.599 32.743 256.094 32.883 256.467C33.0277 256.84 33.2144 257.111 33.443 257.279C33.6764 257.447 33.9587 257.531 34.29 257.531ZM42.7655 261.465V261.192L43.8295 260.961V251.77L42.8005 251.399V251.182L45.0335 250.517H45.2015V251.714H45.2575C45.5375 251.299 45.8805 250.995 46.2865 250.804C46.6972 250.613 47.1125 250.517 47.5325 250.517C48.1158 250.517 48.6268 250.678 49.0655 251C49.5088 251.317 49.8542 251.754 50.1015 252.309C50.3535 252.864 50.4795 253.499 50.4795 254.213C50.4795 254.983 50.3162 255.664 49.9895 256.257C49.6628 256.85 49.2078 257.314 48.6245 257.65C48.0458 257.981 47.3692 258.147 46.5945 258.147C46.3705 258.147 46.1488 258.128 45.9295 258.091C45.7102 258.058 45.4885 258.005 45.2645 257.93V260.961L46.6925 261.192V261.465H42.7655ZM46.6505 257.678C47.1032 257.678 47.4998 257.54 47.8405 257.265C48.1812 256.99 48.4448 256.609 48.6315 256.124C48.8228 255.634 48.9185 255.072 48.9185 254.437C48.9185 253.508 48.7295 252.778 48.3515 252.246C47.9782 251.714 47.4672 251.448 46.8185 251.448C46.5338 251.448 46.2422 251.525 45.9435 251.679C45.6448 251.828 45.4348 252.017 45.3135 252.246V256.299C45.3135 256.7 45.4418 257.032 45.6985 257.293C45.9598 257.55 46.2772 257.678 46.6505 257.678ZM51.5325 258V257.692L52.5755 257.475V251.784L51.5465 251.399V251.196L53.7585 250.517H53.9405V251.728L54.0105 251.798V257.475L55.0395 257.692V258H51.5325ZM55.9565 258V257.692L56.9925 257.489V253.212C56.9925 252.549 56.8875 252.073 56.6775 251.784C56.4721 251.49 56.1408 251.343 55.6835 251.343C55.3288 251.343 54.9905 251.432 54.6685 251.609C54.3511 251.782 54.0735 252.031 53.8355 252.358V251.77C54.2275 251.373 54.6591 251.065 55.1305 250.846C55.6065 250.627 56.0731 250.517 56.5305 250.517C57.1698 250.517 57.6435 250.685 57.9515 251.021C58.2595 251.352 58.4135 251.87 58.4135 252.575V257.489L59.4495 257.692V258H55.9565ZM60.3665 258V257.692L61.3955 257.489V253.17C61.3955 252.507 61.2951 252.038 61.0945 251.763C60.8985 251.483 60.5648 251.343 60.0935 251.343C59.7155 251.343 59.3701 251.432 59.0575 251.609C58.7495 251.782 58.4788 252.031 58.2455 252.358V251.77C58.6048 251.355 59.0271 251.042 59.5125 250.832C59.9978 250.622 60.4878 250.517 60.9825 250.517C61.6078 250.517 62.0651 250.687 62.3545 251.028C62.6438 251.369 62.7978 251.905 62.8165 252.638V257.489L63.8525 257.692V258H60.3665Z" fill="#DAC0A3"/>
<path d="M87 241H157" stroke="#DAC0A3" stroke-width="2" stroke-linecap="round" stroke-dasharray="4 4"/>
<g clip-path="url(#clip2_10_237)">
<path fill-rule="evenodd" clip-rule="evenodd" d="M214.615 227.93C215.096 228.605 214.94 229.541 214.266 230.023L211.114 232.275C210.08 233.013 209.682 234.275 209.971 235.407L214.985 230.393C215.571 229.808 216.521 229.808 217.107 230.393C217.692 230.979 217.692 231.929 217.107 232.515L212.093 237.529C213.225 237.818 214.487 237.42 215.225 236.386L217.477 233.234C217.959 232.56 218.895 232.404 219.569 232.885C220.244 233.367 220.4 234.303 219.918 234.978L217.666 238.13C215.833 240.697 212.396 241.324 209.816 239.805L207.212 242.409L214.417 249.614C215.003 250.2 215.003 251.149 214.417 251.735C213.832 252.321 212.882 252.321 212.296 251.735L205.091 244.53L198.015 251.606C197.429 252.192 196.479 252.192 195.893 251.606C195.308 251.021 195.308 250.071 195.893 249.485L202.97 242.409L200.629 240.068L198.508 242.189C197.922 242.775 196.972 242.775 196.386 242.189L193.08 238.883C190.798 236.601 190.232 233.113 191.675 230.226C191.957 229.662 192.281 229.152 192.964 229.041C193.44 228.964 193.924 229.121 194.265 229.461L201.684 236.88L201.69 236.886L205.091 240.288L207.695 237.684C206.176 235.104 206.803 231.667 209.37 229.834L212.522 227.582C213.197 227.1 214.133 227.256 214.615 227.93Z" fill="#102C57"/>
</g>
<g clip-path="url(#clip3_10_237)">
<path d="M122.114 311.889L122.257 312.015L134.985 324.743C135.347 325.104 135.499 325.625 135.39 326.125C135.294 326.562 135.008 326.93 134.617 327.134L134.443 327.211L118.865 332.95C115.936 334.029 113.086 331.277 113.976 328.354L114.05 328.135L119.789 312.557C119.966 312.077 120.375 311.72 120.875 311.61C121.25 311.528 121.636 311.593 121.959 311.784L122.114 311.889ZM135.661 318.405C137.028 318.477 138.901 318.767 140.53 319.744C141.24 320.17 141.471 321.092 141.044 321.802C140.649 322.462 139.826 322.707 139.142 322.398L138.986 322.316C137.963 321.703 136.655 321.462 135.503 321.401C135.03 321.376 134.552 321.373 134.077 321.408L133.605 321.455C132.785 321.571 132.026 321.001 131.909 320.182C131.792 319.361 132.362 318.602 133.182 318.485C133.998 318.368 134.84 318.362 135.661 318.405ZM138.697 314.227C139.526 314.227 140.197 314.899 140.197 315.727C140.197 316.496 139.618 317.13 138.872 317.217L138.697 317.227H137.637C136.808 317.227 136.137 316.555 136.137 315.727C136.137 314.958 136.716 314.324 137.462 314.237L137.637 314.227H138.697ZM133.925 313.075C134.465 313.616 134.507 314.467 134.049 315.055L133.925 315.197L132.334 316.788C131.748 317.373 130.798 317.373 130.212 316.788C129.672 316.247 129.63 315.396 130.087 314.808L130.212 314.666L131.803 313.075C132.389 312.489 133.339 312.489 133.925 313.075ZM130.044 305.176C130.717 307.195 130.357 309.406 129.936 310.951C129.674 311.91 129.347 312.856 128.902 313.746C128.532 314.487 127.631 314.787 126.89 314.417C126.149 314.047 125.849 313.147 126.218 312.406C126.574 311.693 126.832 310.929 127.042 310.161C127.382 308.914 127.553 307.56 127.29 306.45L127.198 306.125C126.936 305.339 127.361 304.489 128.147 304.228C128.933 303.966 129.782 304.39 130.044 305.176ZM138.167 308.833C138.753 309.418 138.753 310.368 138.167 310.954L137.107 312.015C136.521 312.6 135.571 312.6 134.985 312.015C134.399 311.429 134.399 310.479 134.985 309.893L136.046 308.833C136.632 308.247 137.581 308.247 138.167 308.833Z" fill="#102C57"/>
</g>
<path d="M183 319H253" stroke="#DAC0A3" stroke-width="2" stroke-linecap="round" stroke-dasharray="4 4"/>
<path d="M260.696 304V303.48L262.048 303.168V292.624L260.696 292.328V291.816H270.128L270.416 295.296H269.84C269.707 294.869 269.541 294.424 269.344 293.96C269.147 293.496 268.912 293.051 268.64 292.624H264.464V303.176H268.552C268.888 302.696 269.16 302.216 269.368 301.736C269.576 301.256 269.776 300.776 269.968 300.296H270.704L270.056 304H260.696ZM267.352 299.776C267.293 299.477 267.211 299.176 267.104 298.872C266.997 298.563 266.861 298.259 266.696 297.96H264.216V297.168H266.696C266.867 296.864 267.003 296.56 267.104 296.256C267.211 295.947 267.293 295.643 267.352 295.344H267.936V299.776H267.352ZM275.551 304.168L272.383 296.776C272.277 296.525 272.151 296.357 272.007 296.272C271.869 296.181 271.591 296.123 271.175 296.096V295.608H276.103V296.096C275.645 296.123 275.33 296.173 275.159 296.248C274.994 296.323 274.911 296.432 274.911 296.576C274.911 296.677 274.941 296.8 274.999 296.944L276.775 301.504H276.839L278.439 297.296C278.541 297.024 278.591 296.819 278.591 296.68C278.591 296.515 278.511 296.392 278.351 296.312C278.197 296.232 277.898 296.16 277.455 296.096V295.608H281.039V296.096C280.634 296.155 280.325 296.224 280.111 296.304C279.898 296.384 279.733 296.501 279.615 296.656C279.503 296.811 279.391 297.029 279.279 297.312L276.639 304.168H275.551ZM285.191 304.168C284.348 304.168 283.612 303.992 282.983 303.64C282.354 303.283 281.863 302.787 281.511 302.152C281.164 301.512 280.991 300.773 280.991 299.936C280.991 299.045 281.183 298.264 281.567 297.592C281.956 296.92 282.495 296.395 283.183 296.016C283.876 295.637 284.679 295.448 285.591 295.448C286.748 295.448 287.631 295.768 288.239 296.408C288.852 297.048 289.175 297.989 289.207 299.232L289.087 299.328H282.415V298.696L286.847 298.536C286.884 298.413 286.903 298.211 286.903 297.928C286.903 296.755 286.404 296.168 285.407 296.168C284.74 296.168 284.226 296.448 283.863 297.008C283.506 297.563 283.327 298.352 283.327 299.376C283.327 301.568 284.178 302.664 285.879 302.664C287.031 302.664 287.93 302.264 288.575 301.464L288.967 301.776C288.684 302.533 288.21 303.123 287.543 303.544C286.882 303.96 286.098 304.168 285.191 304.168ZM295.582 304V303.512L296.71 303.224V298.624C296.71 297.979 296.58 297.501 296.318 297.192C296.062 296.877 295.665 296.72 295.126 296.72C294.406 296.72 293.822 297.035 293.374 297.664V296.776C293.774 296.371 294.233 296.048 294.75 295.808C295.273 295.568 295.836 295.448 296.438 295.448C298.076 295.448 298.894 296.307 298.894 298.024V303.224L300.078 303.512V304H295.582ZM290.182 304V303.512L291.382 303.216V296.984L290.182 296.544V296.224L293.19 295.448H293.478V296.824L293.55 296.904V303.216L294.686 303.512V304H290.182ZM303.96 304.168C303.213 304.168 302.672 303.995 302.336 303.648C302.005 303.296 301.84 302.752 301.84 302.016V296.336H300.744L300.664 295.912L303.592 293.496L304.024 293.56V295.608H306.416L306.216 296.336H304.024V301.856C304.024 302.709 304.349 303.136 305 303.136C305.192 303.136 305.378 303.096 305.56 303.016C305.741 302.936 305.904 302.808 306.048 302.632L306.384 303.056C306.117 303.413 305.77 303.688 305.344 303.88C304.917 304.072 304.456 304.168 303.96 304.168ZM311.54 304.168C310.622 304.168 309.833 303.973 309.172 303.584C308.51 303.195 308.004 302.669 307.652 302.008C307.3 301.347 307.124 300.613 307.124 299.808C307.124 298.997 307.3 298.264 307.652 297.608C308.004 296.947 308.51 296.421 309.172 296.032C309.833 295.643 310.622 295.448 311.54 295.448C312.457 295.448 313.244 295.643 313.9 296.032C314.561 296.421 315.068 296.947 315.42 297.608C315.777 298.264 315.956 298.997 315.956 299.808C315.956 300.613 315.777 301.347 315.42 302.008C315.068 302.669 314.561 303.195 313.9 303.584C313.244 303.973 312.457 304.168 311.54 304.168ZM311.54 303.376C311.924 303.376 312.246 303.272 312.508 303.064C312.769 302.856 312.977 302.579 313.132 302.232C313.286 301.88 313.398 301.493 313.468 301.072C313.537 300.651 313.572 300.227 313.572 299.8C313.572 299.379 313.537 298.957 313.468 298.536C313.404 298.115 313.294 297.731 313.14 297.384C312.985 297.037 312.777 296.76 312.516 296.552C312.254 296.344 311.929 296.24 311.54 296.24C311.15 296.24 310.825 296.344 310.564 296.552C310.302 296.76 310.094 297.037 309.94 297.384C309.785 297.731 309.673 298.117 309.604 298.544C309.54 298.965 309.508 299.387 309.508 299.808C309.508 300.235 309.54 300.659 309.604 301.08C309.673 301.496 309.785 301.88 309.94 302.232C310.094 302.579 310.302 302.856 310.564 303.064C310.825 303.272 311.15 303.376 311.54 303.376ZM260.224 327.96V327.608L261.536 327.24V316.968L260.256 316.544V316.208L263.296 315.448H263.6V316.688H263.68C263.979 316.288 264.363 315.981 264.832 315.768C265.307 315.555 265.797 315.448 266.304 315.448C266.987 315.448 267.589 315.627 268.112 315.984C268.64 316.341 269.051 316.835 269.344 317.464C269.643 318.093 269.792 318.816 269.792 319.632C269.792 320.533 269.603 321.325 269.224 322.008C268.845 322.691 268.315 323.221 267.632 323.6C266.949 323.979 266.149 324.168 265.232 324.168C264.955 324.168 264.693 324.147 264.448 324.104C264.208 324.061 263.968 324 263.728 323.92V327.24L265.672 327.608V327.96H260.224ZM265.272 323.416C265.704 323.416 266.08 323.267 266.4 322.968C266.72 322.669 266.968 322.256 267.144 321.728C267.325 321.2 267.416 320.589 267.416 319.896C267.416 318.888 267.232 318.093 266.864 317.512C266.496 316.925 265.997 316.632 265.368 316.632C265.043 316.632 264.723 316.72 264.408 316.896C264.093 317.067 263.872 317.288 263.744 317.56V321.728C263.744 322.203 263.893 322.603 264.192 322.928C264.491 323.253 264.851 323.416 265.272 323.416ZM270.894 324V323.512L272.086 323.216V316.984L270.894 316.536V316.208L273.902 315.448H274.19V316.984L274.254 317.064V323.216L276.19 323.512V324H270.894ZM274.102 318V317.064C274.518 316.536 274.928 316.133 275.334 315.856C275.739 315.573 276.128 315.432 276.502 315.432C276.864 315.432 277.166 315.541 277.406 315.76C277.646 315.973 277.766 316.237 277.766 316.552C277.766 316.851 277.672 317.104 277.486 317.312C277.304 317.515 277.078 317.616 276.806 317.616C276.534 317.616 276.291 317.517 276.078 317.32C275.939 317.187 275.816 317.093 275.71 317.04C275.603 316.981 275.491 316.952 275.374 316.952C275.198 316.952 274.984 317.053 274.734 317.256C274.483 317.459 274.272 317.707 274.102 318ZM278.314 324V323.512L279.626 323.216V316.968L278.322 316.544V316.208L281.522 315.448H281.81V323.216L283.05 323.512V324H278.314ZM280.69 314.096C280.29 314.096 279.981 313.971 279.762 313.72C279.544 313.469 279.434 313.192 279.434 312.888C279.434 312.557 279.546 312.269 279.77 312.024C279.994 311.773 280.301 311.648 280.69 311.648C281.09 311.648 281.408 311.773 281.642 312.024C281.877 312.269 281.994 312.557 281.994 312.888C281.994 313.192 281.882 313.469 281.658 313.72C281.434 313.971 281.112 314.096 280.69 314.096ZM289.176 324V323.512L290.304 323.224V318.624C290.304 317.979 290.173 317.501 289.912 317.192C289.656 316.877 289.259 316.72 288.72 316.72C288 316.72 287.416 317.035 286.968 317.664V316.776C287.368 316.371 287.827 316.048 288.344 315.808C288.867 315.568 289.429 315.448 290.032 315.448C291.669 315.448 292.488 316.307 292.488 318.024V323.224L293.672 323.512V324H289.176ZM283.776 324V323.512L284.976 323.216V316.984L283.776 316.544V316.224L286.784 315.448H287.072V316.824L287.144 316.904V323.216L288.28 323.512V324H283.776ZM298.609 324.168C297.825 324.168 297.129 323.987 296.521 323.624C295.918 323.261 295.443 322.763 295.097 322.128C294.755 321.488 294.585 320.757 294.585 319.936C294.585 319.067 294.774 318.296 295.153 317.624C295.531 316.947 296.054 316.416 296.721 316.032C297.387 315.643 298.15 315.448 299.009 315.448C299.606 315.448 300.142 315.544 300.617 315.736C301.091 315.928 301.467 316.187 301.745 316.512C302.022 316.832 302.161 317.192 302.161 317.592C302.161 317.907 302.073 318.155 301.897 318.336C301.721 318.517 301.481 318.608 301.177 318.608C300.819 318.608 300.571 318.504 300.433 318.296C300.299 318.088 300.217 317.848 300.185 317.576C300.126 317.128 300.025 316.784 299.881 316.544C299.737 316.304 299.47 316.184 299.081 316.184C298.403 316.184 297.878 316.475 297.505 317.056C297.131 317.637 296.945 318.44 296.945 319.464C296.945 320.499 297.145 321.288 297.545 321.832C297.945 322.376 298.526 322.648 299.289 322.648C299.801 322.648 300.257 322.552 300.657 322.36C301.062 322.168 301.433 321.864 301.769 321.448L302.169 321.744C301.854 322.549 301.401 323.155 300.809 323.56C300.217 323.965 299.483 324.168 298.609 324.168ZM303.064 324V323.512L304.376 323.216V316.968L303.072 316.544V316.208L306.272 315.448H306.56V323.216L307.8 323.512V324H303.064ZM305.44 314.096C305.04 314.096 304.731 313.971 304.512 313.72C304.294 313.469 304.184 313.192 304.184 312.888C304.184 312.557 304.296 312.269 304.52 312.024C304.744 311.773 305.051 311.648 305.44 311.648C305.84 311.648 306.158 311.773 306.392 312.024C306.627 312.269 306.744 312.557 306.744 312.888C306.744 313.192 306.632 313.469 306.408 313.72C306.184 313.971 305.862 314.096 305.44 314.096ZM308.302 327.96V327.608L309.614 327.24V316.968L308.334 316.544V316.208L311.374 315.448H311.678V316.688H311.758C312.057 316.288 312.441 315.981 312.91 315.768C313.385 315.555 313.875 315.448 314.382 315.448C315.065 315.448 315.667 315.627 316.19 315.984C316.718 316.341 317.129 316.835 317.422 317.464C317.721 318.093 317.87 318.816 317.87 319.632C317.87 320.533 317.681 321.325 317.302 322.008C316.923 322.691 316.393 323.221 315.71 323.6C315.027 323.979 314.227 324.168 313.31 324.168C313.033 324.168 312.771 324.147 312.526 324.104C312.286 324.061 312.046 324 311.806 323.92V327.24L313.75 327.608V327.96H308.302ZM313.35 323.416C313.782 323.416 314.158 323.267 314.478 322.968C314.798 322.669 315.046 322.256 315.222 321.728C315.403 321.2 315.494 320.589 315.494 319.896C315.494 318.888 315.31 318.093 314.942 317.512C314.574 316.925 314.075 316.632 313.446 316.632C313.121 316.632 312.801 316.72 312.486 316.896C312.171 317.067 311.95 317.288 311.822 317.56V321.728C311.822 322.203 311.971 322.603 312.27 322.928C312.569 323.253 312.929 323.416 313.35 323.416ZM321.196 324.168C320.577 324.168 320.084 323.997 319.716 323.656C319.348 323.309 319.164 322.848 319.164 322.272C319.164 321.765 319.321 321.328 319.636 320.96C319.956 320.587 320.452 320.272 321.124 320.016C321.796 319.755 322.66 319.539 323.716 319.368V318.096C323.716 317.392 323.641 316.915 323.492 316.664C323.348 316.408 323.073 316.28 322.668 316.28C322.257 316.28 321.932 316.379 321.692 316.576C321.452 316.773 321.332 317.043 321.332 317.384C321.332 317.496 321.34 317.608 321.356 317.72C321.377 317.832 321.388 317.941 321.388 318.048C321.388 318.341 321.289 318.584 321.092 318.776C320.9 318.968 320.657 319.064 320.364 319.064C320.081 319.064 319.852 318.973 319.676 318.792C319.505 318.605 319.42 318.365 319.42 318.072C319.42 317.736 319.542 317.397 319.788 317.056C320.033 316.715 320.369 316.413 320.796 316.152C321.574 315.683 322.481 315.448 323.516 315.448C324.049 315.448 324.486 315.517 324.828 315.656C325.169 315.795 325.422 315.995 325.588 316.256C325.7 316.448 325.78 316.696 325.828 317C325.876 317.299 325.9 317.752 325.9 318.36V321.728C325.9 322.213 325.942 322.557 326.028 322.76C326.118 322.963 326.273 323.064 326.492 323.064C326.737 323.064 326.98 322.931 327.22 322.664L327.556 323.096C327.241 323.464 326.913 323.736 326.572 323.912C326.236 324.083 325.857 324.168 325.436 324.168C324.945 324.168 324.572 324.061 324.316 323.848C324.06 323.629 323.892 323.299 323.812 322.856H323.748C323.385 323.288 322.988 323.616 322.556 323.84C322.129 324.059 321.676 324.168 321.196 324.168ZM322.436 322.824C322.692 322.824 322.929 322.771 323.148 322.664C323.372 322.557 323.561 322.403 323.716 322.2V320.032C323.14 320.144 322.686 320.272 322.356 320.416C322.025 320.555 321.793 320.728 321.66 320.936C321.526 321.139 321.46 321.397 321.46 321.712C321.46 322.08 321.54 322.357 321.7 322.544C321.86 322.731 322.105 322.824 322.436 322.824ZM327.796 324V323.512L329.108 323.216V312.376L327.796 311.952V311.616L330.996 310.856H331.276V323.216L332.524 323.512V324H327.796Z" fill="#102C57"/>
<path d="M260.546 346V345.671L262.352 345.377V337.313H260.595V336.977C261.094 336.828 261.591 336.611 262.086 336.326C262.581 336.037 263.075 335.659 263.57 335.192L263.899 335.304V345.377L265.684 345.671V346H260.546ZM270.296 346.147C269.787 346.147 269.314 346.012 268.875 345.741C268.436 345.466 268.051 345.083 267.72 344.593C267.393 344.098 267.137 343.522 266.95 342.864C266.768 342.206 266.677 341.492 266.677 340.722C266.677 339.943 266.768 339.219 266.95 338.552C267.137 337.88 267.393 337.294 267.72 336.795C268.051 336.291 268.436 335.899 268.875 335.619C269.314 335.334 269.787 335.192 270.296 335.192C270.805 335.192 271.281 335.334 271.724 335.619C272.167 335.904 272.555 336.298 272.886 336.802C273.222 337.306 273.483 337.894 273.67 338.566C273.861 339.233 273.957 339.952 273.957 340.722C273.957 341.487 273.864 342.199 273.677 342.857C273.495 343.515 273.236 344.091 272.9 344.586C272.569 345.076 272.181 345.459 271.738 345.734C271.295 346.009 270.814 346.147 270.296 346.147ZM270.296 345.531C270.632 345.531 270.919 345.447 271.157 345.279C271.395 345.106 271.586 344.833 271.731 344.46C271.876 344.082 271.981 343.587 272.046 342.976C272.116 342.36 272.151 341.606 272.151 340.715C272.151 339.824 272.116 339.065 272.046 338.44C271.981 337.815 271.873 337.308 271.724 336.921C271.579 336.529 271.388 336.244 271.15 336.067C270.917 335.885 270.632 335.794 270.296 335.794C269.969 335.794 269.689 335.883 269.456 336.06C269.227 336.237 269.041 336.52 268.896 336.907C268.751 337.294 268.646 337.801 268.581 338.426C268.516 339.051 268.483 339.814 268.483 340.715C268.483 341.611 268.516 342.367 268.581 342.983C268.646 343.599 268.749 344.094 268.889 344.467C269.034 344.84 269.22 345.111 269.449 345.279C269.682 345.447 269.965 345.531 270.296 345.531ZM276.719 341.436C276.42 341.436 276.182 341.34 276.005 341.149C275.832 340.953 275.746 340.727 275.746 340.47C275.746 340.185 275.832 339.947 276.005 339.756C276.182 339.565 276.42 339.469 276.719 339.469C277.032 339.469 277.277 339.565 277.454 339.756C277.631 339.947 277.72 340.185 277.72 340.47C277.72 340.727 277.631 340.953 277.454 341.149C277.281 341.34 277.036 341.436 276.719 341.436ZM276.719 346.147C276.42 346.147 276.182 346.049 276.005 345.853C275.832 345.657 275.746 345.428 275.746 345.167C275.746 344.892 275.832 344.658 276.005 344.467C276.182 344.276 276.42 344.18 276.719 344.18C277.032 344.18 277.277 344.276 277.454 344.467C277.631 344.658 277.72 344.892 277.72 345.167C277.72 345.428 277.631 345.657 277.454 345.853C277.281 346.049 277.036 346.147 276.719 346.147ZM283.093 346.147C282.584 346.147 282.11 346.012 281.672 345.741C281.233 345.466 280.848 345.083 280.517 344.593C280.19 344.098 279.933 343.522 279.747 342.864C279.565 342.206 279.474 341.492 279.474 340.722C279.474 339.943 279.565 339.219 279.747 338.552C279.933 337.88 280.19 337.294 280.517 336.795C280.848 336.291 281.233 335.899 281.672 335.619C282.11 335.334 282.584 335.192 283.093 335.192C283.601 335.192 284.077 335.334 284.521 335.619C284.964 335.904 285.351 336.298 285.683 336.802C286.019 337.306 286.28 337.894 286.467 338.566C286.658 339.233 286.754 339.952 286.754 340.722C286.754 341.487 286.66 342.199 286.474 342.857C286.292 343.515 286.033 344.091 285.697 344.586C285.365 345.076 284.978 345.459 284.535 345.734C284.091 346.009 283.611 346.147 283.093 346.147ZM283.093 345.531C283.429 345.531 283.716 345.447 283.954 345.279C284.192 345.106 284.383 344.833 284.528 344.46C284.672 344.082 284.777 343.587 284.843 342.976C284.913 342.36 284.948 341.606 284.948 340.715C284.948 339.824 284.913 339.065 284.843 338.44C284.777 337.815 284.67 337.308 284.521 336.921C284.376 336.529 284.185 336.244 283.947 336.067C283.713 335.885 283.429 335.794 283.093 335.794C282.766 335.794 282.486 335.883 282.253 336.06C282.024 336.237 281.837 336.52 281.693 336.907C281.548 337.294 281.443 337.801 281.378 338.426C281.312 339.051 281.28 339.814 281.28 340.715C281.28 341.611 281.312 342.367 281.378 342.983C281.443 343.599 281.546 344.094 281.686 344.467C281.83 344.84 282.017 345.111 282.246 345.279C282.479 345.447 282.761 345.531 283.093 345.531ZM291.966 346.147C291.457 346.147 290.983 346.012 290.545 345.741C290.106 345.466 289.721 345.083 289.39 344.593C289.063 344.098 288.806 343.522 288.62 342.864C288.438 342.206 288.347 341.492 288.347 340.722C288.347 339.943 288.438 339.219 288.62 338.552C288.806 337.88 289.063 337.294 289.39 336.795C289.721 336.291 290.106 335.899 290.545 335.619C290.983 335.334 291.457 335.192 291.966 335.192C292.474 335.192 292.95 335.334 293.394 335.619C293.837 335.904 294.224 336.298 294.556 336.802C294.892 337.306 295.153 337.894 295.34 338.566C295.531 339.233 295.627 339.952 295.627 340.722C295.627 341.487 295.533 342.199 295.347 342.857C295.165 343.515 294.906 344.091 294.57 344.586C294.238 345.076 293.851 345.459 293.408 345.734C292.964 346.009 292.484 346.147 291.966 346.147ZM291.966 345.531C292.302 345.531 292.589 345.447 292.827 345.279C293.065 345.106 293.256 344.833 293.401 344.46C293.545 344.082 293.65 343.587 293.716 342.976C293.786 342.36 293.821 341.606 293.821 340.715C293.821 339.824 293.786 339.065 293.716 338.44C293.65 337.815 293.543 337.308 293.394 336.921C293.249 336.529 293.058 336.244 292.82 336.067C292.586 335.885 292.302 335.794 291.966 335.794C291.639 335.794 291.359 335.883 291.126 336.06C290.897 336.237 290.71 336.52 290.566 336.907C290.421 337.294 290.316 337.801 290.251 338.426C290.185 339.051 290.153 339.814 290.153 340.715C290.153 341.611 290.185 342.367 290.251 342.983C290.316 343.599 290.419 344.094 290.559 344.467C290.703 344.84 290.89 345.111 291.119 345.279C291.352 345.447 291.634 345.531 291.966 345.531ZM300.441 349.465V349.192L301.505 348.961V339.77L300.476 339.399V339.182L302.709 338.517H302.877V339.714H302.933C303.213 339.299 303.556 338.995 303.962 338.804C304.373 338.613 304.788 338.517 305.208 338.517C305.792 338.517 306.303 338.678 306.741 339C307.185 339.317 307.53 339.754 307.777 340.309C308.029 340.864 308.155 341.499 308.155 342.213C308.155 342.983 307.992 343.664 307.665 344.257C307.339 344.85 306.884 345.314 306.3 345.65C305.722 345.981 305.045 346.147 304.27 346.147C304.046 346.147 303.825 346.128 303.605 346.091C303.386 346.058 303.164 346.005 302.94 345.93V348.961L304.368 349.192V349.465H300.441ZM304.326 345.678C304.779 345.678 305.176 345.54 305.516 345.265C305.857 344.99 306.121 344.609 306.307 344.124C306.499 343.634 306.594 343.072 306.594 342.437C306.594 341.508 306.405 340.778 306.027 340.246C305.654 339.714 305.143 339.448 304.494 339.448C304.21 339.448 303.918 339.525 303.619 339.679C303.321 339.828 303.111 340.017 302.989 340.246V344.299C302.989 344.7 303.118 345.032 303.374 345.293C303.636 345.55 303.953 345.678 304.326 345.678ZM309.208 346V345.692L310.251 345.475V339.784L309.222 339.399V339.196L311.434 338.517H311.616V339.728L311.686 339.798V345.475L312.715 345.692V346H309.208ZM313.632 346V345.692L314.668 345.489V341.212C314.668 340.549 314.563 340.073 314.353 339.784C314.148 339.49 313.817 339.343 313.359 339.343C313.005 339.343 312.666 339.432 312.344 339.609C312.027 339.782 311.749 340.031 311.511 340.358V339.77C311.903 339.373 312.335 339.065 312.806 338.846C313.282 338.627 313.749 338.517 314.206 338.517C314.846 338.517 315.319 338.685 315.627 339.021C315.935 339.352 316.089 339.87 316.089 340.575V345.489L317.125 345.692V346H313.632ZM318.042 346V345.692L319.071 345.489V341.17C319.071 340.507 318.971 340.038 318.77 339.763C318.574 339.483 318.241 339.343 317.769 339.343C317.391 339.343 317.046 339.432 316.733 339.609C316.425 339.782 316.155 340.031 315.921 340.358V339.77C316.281 339.355 316.703 339.042 317.188 338.832C317.674 338.622 318.164 338.517 318.658 338.517C319.284 338.517 319.741 338.687 320.03 339.028C320.32 339.369 320.474 339.905 320.492 340.638V345.489L321.528 345.692V346H318.042Z" fill="#DAC0A3"/>
<path d="M167 7L167 388" stroke="#DAC0A3" stroke-width="2" stroke-linecap="round"/>
<defs>
<clipPath id="clip0_10_237">
<rect width="36" height="36" fill="white" transform="translate(110 145)"/>
</clipPath>
<clipPath id="clip1_10_237">
<rect width="36" height="36" fill="white" transform="translate(187 57)"/>
</clipPath>
<clipPath id="clip2_10_237">
<rect width="36" height="36" fill="white" transform="translate(187 223)"/>
</clipPath>
<clipPath id="clip3_10_237">
<rect width="36" height="36" fill="white" transform="translate(110 301)"/>
</clipPath>
</defs>
</svg>
