<svg width="80" height="41" viewBox="0 0 80 41" fill="none" xmlns="http://www.w3.org/2000/svg">
<path d="M3.42694 10.2239V16.3449L5.53914 16.5174V16.6898H0V16.5174L1.76735 16.3449V2.16303L0 1.99061V1.81818H5.45292C7.13406 1.81818 8.42006 2.1774 9.31092 2.89584C10.2162 3.61427 10.6688 4.62727 10.6688 5.93482C10.6688 7.32858 10.2233 8.39187 9.33247 9.12467C8.44162 9.85748 7.14843 10.2239 5.45292 10.2239H3.42694ZM3.42694 2.07682V9.96524H5.38827C6.55213 9.96524 7.39988 9.63476 7.93153 8.9738C8.46317 8.31284 8.72899 7.26392 8.72899 5.82705C8.72899 4.63445 8.48472 3.71485 7.99619 3.06826C7.52202 2.4073 6.65271 2.07682 5.38827 2.07682H3.42694Z" fill="#102C57"/>
<path d="M13.1162 16.8407C12.5702 16.8407 12.1176 16.6539 11.7584 16.2803C11.4135 15.8923 11.2411 15.3966 11.2411 14.7931C11.2411 14.0747 11.5644 13.4999 12.211 13.0689C12.8719 12.6378 13.9855 12.2642 15.5517 11.9481V9.98679C15.5517 9.15341 15.4583 8.57866 15.2715 8.26255C15.0847 7.93207 14.7614 7.76683 14.3016 7.76683C13.8562 7.76683 13.497 7.88896 13.224 8.13323C12.951 8.36313 12.8145 8.67924 12.8145 9.08157L12.836 9.6635C12.836 10.0227 12.7642 10.3101 12.6205 10.5256C12.4912 10.7268 12.3044 10.8274 12.0601 10.8274C11.8446 10.8274 11.665 10.7555 11.5213 10.6118C11.392 10.4681 11.3273 10.2814 11.3273 10.0515C11.3273 9.70661 11.4926 9.33302 11.823 8.9307C12.1679 8.514 12.6061 8.16915 13.1378 7.89615C13.7844 7.53693 14.4525 7.35732 15.1422 7.35732C15.5445 7.35732 15.8822 7.43635 16.1552 7.59441C16.4426 7.75246 16.6509 7.97518 16.7802 8.26255C16.8521 8.44934 16.8952 8.67924 16.9096 8.95225C16.9383 9.22525 16.9527 9.74971 16.9527 10.5256V14.6423C16.9527 15.1595 17.003 15.5187 17.1035 15.7199C17.2041 15.9067 17.3837 16.0001 17.6424 16.0001C18.0303 16.0001 18.3177 15.8636 18.5045 15.5906L18.5907 15.6337C18.4183 15.9929 18.1884 16.2731 17.901 16.4743C17.6136 16.6611 17.3047 16.7545 16.9742 16.7545C16.6006 16.7545 16.2917 16.6467 16.0474 16.4312C15.8032 16.2013 15.6667 15.8995 15.6379 15.5259L15.5733 15.5044C15.2428 15.9211 14.862 16.2516 14.431 16.4958C13.9999 16.7257 13.5616 16.8407 13.1162 16.8407ZM14.043 16.0217C14.3447 16.0217 14.6249 15.957 14.8836 15.8277C15.1566 15.684 15.3793 15.4828 15.5517 15.2242V12.1852C14.8045 12.372 14.2226 12.5588 13.8059 12.7456C13.4036 12.9324 13.1162 13.1551 12.9438 13.4137C12.7714 13.6724 12.6852 13.9957 12.6852 14.3836C12.6852 14.8865 12.8073 15.2888 13.0516 15.5906C13.2958 15.878 13.6263 16.0217 14.043 16.0217Z" fill="#102C57"/>
<path d="M19.2508 7.76683L21.6216 5.4822L21.7078 5.50376V7.5513H24.1649L24.0355 7.89615H21.7078V14.4914C21.7078 14.9943 21.7868 15.3679 21.9449 15.6121C22.1173 15.957 22.4406 16.1294 22.9148 16.1294C23.1447 16.1294 23.3674 16.0719 23.5829 15.957C23.7985 15.842 24.0355 15.6553 24.2942 15.3966L24.3804 15.4613C24.1649 15.9067 23.8559 16.2587 23.4536 16.5174C23.0656 16.776 22.649 16.9053 22.2035 16.9053C21.7437 16.9053 21.3342 16.776 20.975 16.5174C20.7307 16.3449 20.5583 16.1222 20.4577 15.8492C20.3571 15.5762 20.3069 15.217 20.3069 14.7716V7.8746H19.2939L19.2508 7.76683Z" fill="#102C57"/>
<path d="M29.9535 7.33577C30.2409 7.33577 30.4852 7.43635 30.6863 7.63751C30.8875 7.82431 30.9881 8.0542 30.9881 8.32721C30.9881 8.55711 30.9091 8.75109 30.751 8.90914C30.5929 9.0672 30.399 9.14623 30.1691 9.14623C30.0254 9.14623 29.9032 9.11749 29.8027 9.06001C29.7164 8.98817 29.6231 8.88759 29.5225 8.75827C29.4219 8.64332 29.3285 8.55711 29.2423 8.49963C29.1704 8.44216 29.077 8.41342 28.9621 8.41342C28.7322 8.41342 28.4951 8.54992 28.2508 8.82293C28.0209 9.09593 27.8557 9.41205 27.7551 9.77126V16.3449L29.4794 16.5174V16.6898H25.0394V16.5174L26.3542 16.3449V8.80138L25.0825 8.32721V8.17634L27.518 7.33577H27.6905V9.23244C28.4951 7.96799 29.2495 7.33577 29.9535 7.33577Z" fill="#102C57"/>
<path d="M32.9802 3.49932C32.7934 3.68612 32.7 3.93038 32.7 4.23213C32.7 4.53387 32.7934 4.78532 32.9802 4.98648C33.1814 5.17328 33.4328 5.26667 33.7346 5.26667C34.0363 5.26667 34.2806 5.17328 34.4674 4.98648C34.6685 4.78532 34.7691 4.53387 34.7691 4.23213C34.7691 3.93038 34.6685 3.68612 34.4674 3.49932C34.2806 3.29816 34.0363 3.19758 33.7346 3.19758C33.4328 3.19758 33.1814 3.29816 32.9802 3.49932ZM34.5536 7.33577V16.3449L35.8683 16.5174V16.6898H31.8379V16.5174L33.1526 16.3449V8.80138L31.881 8.32721V8.17634L34.3812 7.33577H34.5536Z" fill="#102C57"/>
<path d="M39.1555 7.96081C39.8021 7.54411 40.5349 7.33577 41.3539 7.33577C42.1586 7.33577 42.8339 7.51538 43.3799 7.8746C43.9403 8.23381 44.2205 8.67924 44.2205 9.21089C44.2205 9.45515 44.1486 9.65631 44.005 9.81437C43.8613 9.95806 43.6673 10.0299 43.423 10.0299C43.1356 10.0299 42.9345 9.94369 42.8195 9.77126C42.719 9.58447 42.6256 9.2971 42.5393 8.90914C42.4388 8.46371 42.3094 8.12605 42.1514 7.89615C41.9933 7.66625 41.6988 7.5513 41.2677 7.5513C40.7504 7.5513 40.2835 7.73809 39.8668 8.11168C39.4501 8.48526 39.1196 9.00254 38.8753 9.6635C38.6454 10.3245 38.5305 11.0716 38.5305 11.905C38.5305 13.1551 38.7963 14.125 39.3279 14.8147C39.8596 15.5044 40.6139 15.8492 41.591 15.8492C42.1227 15.8492 42.5968 15.7415 43.0135 15.5259C43.4446 15.296 43.8397 14.9512 44.1989 14.4914L44.3929 14.2327L44.4791 14.2759L44.3929 14.5129C44.1055 15.2745 43.6673 15.8636 43.0782 16.2803C42.5034 16.697 41.8209 16.9053 41.0306 16.9053C40.2691 16.9053 39.5866 16.7113 38.9831 16.3234C38.394 15.9211 37.927 15.3679 37.5821 14.6638C37.2517 13.9454 37.0864 13.1335 37.0864 12.2283C37.0864 11.2943 37.266 10.4538 37.6252 9.7066C37.9988 8.95943 38.5089 8.3775 39.1555 7.96081Z" fill="#102C57"/>
<path d="M46.6614 3.49932C46.4746 3.68612 46.3812 3.93038 46.3812 4.23213C46.3812 4.53387 46.4746 4.78532 46.6614 4.98648C46.8625 5.17328 47.114 5.26667 47.4157 5.26667C47.7175 5.26667 47.9617 5.17328 48.1485 4.98648C48.3497 4.78532 48.4503 4.53387 48.4503 4.23213C48.4503 3.93038 48.3497 3.68612 48.1485 3.49932C47.9617 3.29816 47.7175 3.19758 47.4157 3.19758C47.114 3.19758 46.8625 3.29816 46.6614 3.49932ZM48.2347 7.33577V16.3449L49.5495 16.5174V16.6898H45.5191V16.5174L46.8338 16.3449V8.80138L45.5622 8.32721V8.17634L48.0623 7.33577H48.2347Z" fill="#102C57"/>
<path d="M52.7073 16.8407C52.1613 16.8407 51.7087 16.6539 51.3495 16.2803C51.0046 15.8923 50.8322 15.3966 50.8322 14.7931C50.8322 14.0747 51.1555 13.4999 51.8021 13.0689C52.4631 12.6378 53.5766 12.2642 55.1428 11.9481V9.98679C55.1428 9.15341 55.0494 8.57866 54.8626 8.26255C54.6758 7.93207 54.3526 7.76683 53.8928 7.76683C53.4473 7.76683 53.0881 7.88896 52.8151 8.13323C52.5421 8.36313 52.4056 8.67924 52.4056 9.08157L52.4271 9.6635C52.4271 10.0227 52.3553 10.3101 52.2116 10.5256C52.0823 10.7268 51.8955 10.8274 51.6512 10.8274C51.4357 10.8274 51.2561 10.7555 51.1124 10.6118C50.9831 10.4681 50.9184 10.2814 50.9184 10.0515C50.9184 9.70661 51.0837 9.33302 51.4142 8.9307C51.759 8.514 52.1972 8.16915 52.7289 7.89615C53.3755 7.53693 54.0436 7.35732 54.7333 7.35732C55.1356 7.35732 55.4733 7.43635 55.7463 7.59441C56.0337 7.75246 56.242 7.97518 56.3714 8.26255C56.4432 8.44934 56.4863 8.67924 56.5007 8.95225C56.5294 9.22525 56.5438 9.74971 56.5438 10.5256V14.6423C56.5438 15.1595 56.5941 15.5187 56.6946 15.7199C56.7952 15.9067 56.9748 16.0001 57.2335 16.0001C57.6214 16.0001 57.9088 15.8636 58.0956 15.5906L58.1818 15.6337C58.0094 15.9929 57.7795 16.2731 57.4921 16.4743C57.2047 16.6611 56.8958 16.7545 56.5653 16.7545C56.1917 16.7545 55.8828 16.6467 55.6385 16.4312C55.3943 16.2013 55.2578 15.8995 55.229 15.5259L55.1644 15.5044C54.8339 15.9211 54.4531 16.2516 54.0221 16.4958C53.591 16.7257 53.1528 16.8407 52.7073 16.8407ZM53.6341 16.0217C53.9359 16.0217 54.216 15.957 54.4747 15.8277C54.7477 15.684 54.9704 15.4828 55.1428 15.2242V12.1852C54.3957 12.372 53.8137 12.5588 53.397 12.7456C52.9947 12.9324 52.7073 13.1551 52.5349 13.4137C52.3625 13.6724 52.2763 13.9957 52.2763 14.3836C52.2763 14.8865 52.3984 15.2888 52.6427 15.5906C52.8869 15.878 53.2174 16.0217 53.6341 16.0217Z" fill="#102C57"/>
<path d="M29.2881 30.8931L28.749 35.4219H18.1819V35.2494L19.9503 35.0768V20.8867L18.1819 20.7142V20.5417H28.7706L29.0725 24.596L28.8568 24.6176L27.6491 21.5984C27.5198 21.2677 27.376 21.0521 27.2178 20.9514C27.0741 20.8508 26.8297 20.8005 26.4846 20.8005H21.6108V27.4211H24.8025C25.1475 27.4211 25.392 27.3636 25.5357 27.2486C25.6795 27.1335 25.7801 26.9107 25.8376 26.58L26.2043 24.8332H26.463V30.354H26.2043L25.8376 28.6072C25.7801 28.2765 25.6795 28.0537 25.5357 27.9387C25.392 27.8236 25.1475 27.7661 24.8025 27.7661H21.6108V35.1631H26.4415C26.7865 35.1631 27.0381 35.1128 27.1963 35.0121C27.3544 34.8971 27.4982 34.6815 27.6276 34.3652L29.0509 30.8716L29.2881 30.8931Z" fill="#102C57"/>
<path d="M39.9526 35.2494V35.4219H35.9414V35.2494L37.2569 35.0768V29.5776C37.2569 29.0169 37.2425 28.6 37.2138 28.3268C37.185 28.0537 37.1275 27.8236 37.0413 27.6367C36.9262 27.3923 36.7322 27.2054 36.459 27.076C36.2002 26.9323 35.8983 26.8604 35.5532 26.8604C34.82 26.8604 34.1659 27.1695 33.5908 27.7877V35.0768L34.9063 35.2494V35.4219H30.8735V35.2494L32.189 35.0768V27.6367L30.9167 27.1623V27.0113L33.3536 26.1703H33.5261V27.5289C34.4462 26.5513 35.4095 26.0625 36.4159 26.0625C36.8615 26.0625 37.2641 26.1631 37.6235 26.3644C37.9973 26.5513 38.2633 26.8029 38.4214 27.1192C38.5221 27.3061 38.5868 27.5649 38.6155 27.8955C38.6443 28.2118 38.6587 28.7725 38.6587 29.5776V35.0768L39.9526 35.2494Z" fill="#102C57"/>
<path d="M45.7519 26.0625C46.0394 26.0625 46.2838 26.1631 46.4851 26.3644C46.6864 26.5513 46.787 26.7813 46.787 27.0545C46.787 27.2845 46.7079 27.4786 46.5498 27.6367C46.3916 27.7949 46.1975 27.874 45.9675 27.874C45.8237 27.874 45.7016 27.8452 45.6009 27.7877C45.5147 27.7158 45.4212 27.6152 45.3206 27.4858C45.2199 27.3708 45.1265 27.2845 45.0402 27.227C44.9683 27.1695 44.8749 27.1407 44.7599 27.1407C44.5298 27.1407 44.2926 27.2773 44.0482 27.5505C43.8182 27.8236 43.6528 28.1399 43.5522 28.4994V35.0768L45.2774 35.2494V35.4219H40.8349V35.2494L42.1504 35.0768V27.5289L40.8781 27.0545V26.9035L43.315 26.0625H43.4875V27.9602C44.2926 26.695 45.0474 26.0625 45.7519 26.0625Z" fill="#102C57"/>
<path d="M48.7803 22.2238C48.5934 22.4107 48.4999 22.6551 48.4999 22.957C48.4999 23.2589 48.5934 23.5105 48.7803 23.7118C48.9816 23.8987 49.2332 23.9922 49.5351 23.9922C49.837 23.9922 50.0814 23.8987 50.2683 23.7118C50.4696 23.5105 50.5702 23.2589 50.5702 22.957C50.5702 22.6551 50.4696 22.4107 50.2683 22.2238C50.0814 22.0225 49.837 21.9219 49.5351 21.9219C49.2332 21.9219 48.9816 22.0225 48.7803 22.2238ZM50.3546 26.0625V35.0768L51.6701 35.2494V35.4219H47.6373V35.2494L48.9528 35.0768V27.5289L47.6805 27.0545V26.9035L50.1821 26.0625H50.3546Z" fill="#102C57"/>
<path d="M57.202 40.4682V40.3173L59.1429 40.08V34.3652C58.424 35.2134 57.5398 35.6375 56.4903 35.6375C55.8002 35.6375 55.182 35.4506 54.6357 35.0768C54.0894 34.6887 53.658 34.1567 53.3417 33.481C53.0398 32.7909 52.8889 32.0145 52.8889 31.1519C52.8889 30.1887 53.0758 29.326 53.4496 28.5641C53.8377 27.7877 54.3625 27.1767 55.0238 26.731C55.6996 26.2853 56.4472 26.0625 57.2667 26.0625C58.1293 26.0625 58.92 26.3284 59.6389 26.8604H59.7251L60.3074 26.2781H60.5446V40.1232L61.8601 40.2957V40.4682H57.202ZM58.6684 26.8604C58.3521 26.4722 57.9064 26.2781 57.3314 26.2781C56.4687 26.2781 55.7786 26.6879 55.2611 27.5073C54.7435 28.3125 54.4847 29.3979 54.4847 30.7637C54.4847 32.072 54.7291 33.1072 55.2179 33.8692C55.7068 34.6168 56.3681 34.9906 57.202 34.9906C57.5758 34.9906 57.9352 34.9115 58.2802 34.7534C58.6253 34.5952 58.9128 34.3724 59.1429 34.0848V28.4562C59.1429 27.7661 58.9847 27.2342 58.6684 26.8604Z" fill="#102C57"/>
<path d="M71.172 34.3436V34.4514L68.8214 35.5297H68.692V34.0633L68.6273 34.0417C67.7791 35.1056 66.8661 35.6375 65.8885 35.6375C65.4428 35.6375 65.0474 35.5441 64.7024 35.3572C64.3573 35.1703 64.1057 34.9115 63.9476 34.5808C63.8469 34.3939 63.7823 34.1423 63.7535 33.826C63.7248 33.4954 63.7104 32.9275 63.7104 32.1224V26.6232L62.4164 26.4506V26.2781H65.1121V32.1224C65.1121 32.6974 65.1265 33.1216 65.1553 33.3947C65.184 33.6535 65.2415 33.8764 65.3278 34.0633C65.4284 34.2933 65.5938 34.4802 65.8238 34.624C66.0682 34.7534 66.3414 34.8181 66.6433 34.8181C67.0027 34.8181 67.3478 34.7318 67.6784 34.5593C68.0091 34.3724 68.311 34.1064 68.5842 33.7613V26.6232L67.2902 26.4506V26.2781H69.9859V34.0848L71.172 34.3436Z" fill="#102C57"/>
<path d="M79.8275 32.9634L79.9138 33.0066L79.8275 33.2438C79.54 34.0058 79.1087 34.5952 78.5336 35.0121C77.9729 35.4291 77.2972 35.6375 76.5065 35.6375C75.7301 35.6375 75.04 35.4363 74.4362 35.0337C73.8323 34.6312 73.3579 34.0704 73.0128 33.3516C72.6822 32.6327 72.5168 31.8061 72.5168 30.8716C72.5168 29.9371 72.6966 29.1032 73.056 28.37C73.4154 27.6367 73.9258 27.0688 74.5871 26.6663C75.2485 26.2637 76.0033 26.0625 76.8515 26.0625C77.8579 26.0625 78.6271 26.3644 79.159 26.9682C79.7053 27.5577 79.9857 28.4203 80.0001 29.5561L79.8707 29.6639H74.048C74.0192 30.0377 74.0049 30.3324 74.0049 30.5481C74.0049 31.8564 74.2708 32.8556 74.8028 33.5457C75.3347 34.2214 76.0751 34.5593 77.024 34.5593C77.5129 34.5593 77.9801 34.4514 78.4258 34.2358C78.8859 34.0058 79.2884 33.6679 79.6335 33.2222L79.8275 32.9634ZM76.6143 26.2997C75.9386 26.2997 75.3779 26.58 74.9322 27.1407C74.4865 27.7014 74.199 28.4634 74.0696 29.4267L78.2533 29.2757C78.2964 29.1032 78.318 28.8157 78.318 28.4131C78.318 27.6367 78.167 27.0904 77.8651 26.7741C77.5776 26.4578 77.1606 26.2997 76.6143 26.2997Z" fill="#102C57"/>
<path opacity="0.3" d="M72.7274 30.2529L72.5311 30.8039C71.9095 32.5403 70.928 33.9093 69.5867 34.9111C68.2781 35.8795 66.7731 36.3636 65.0719 36.3636C63.796 36.3636 62.6182 36.0464 61.5386 35.412C60.4917 34.7775 59.3303 33.709 58.0543 32.2064L57.171 31.1545C53.7686 34.6273 50.0226 36.3636 45.9331 36.3636C42.8906 36.3636 40.535 35.6457 38.8665 34.2099C37.198 32.7406 36.3638 30.6703 36.3638 27.999C36.3638 25.528 37.1326 23.3575 38.6702 21.4876C40.2079 19.6177 42.4326 18.1651 45.3443 17.13L44.9026 16.6291C43.3977 14.8593 42.3344 13.3734 41.7128 12.1713C41.1239 10.9358 40.8295 9.68361 40.8295 8.41473C40.8295 6.81192 41.2057 5.37608 41.9582 4.10719C42.7434 2.80491 43.823 1.80316 45.197 1.10193C46.5711 0.36731 48.1251 0 49.859 0C52.1164 0 53.9485 0.601052 55.3553 1.80316C56.7621 2.97187 57.4655 4.50789 57.4655 6.41122C57.4655 8.34794 56.713 10.2012 55.2081 11.971C53.7359 13.7073 51.7729 15.0597 49.3192 16.0281L59.2812 27.5983C61.2769 25.0605 62.8799 22.122 64.0904 18.7829C64.2213 18.4156 64.2867 18.1317 64.2867 17.9314C64.2867 17.5641 64.1722 17.2969 63.9432 17.13C63.7469 16.9296 63.3707 16.8128 62.8145 16.7794L58.8395 16.5289V16.1282H71.2552V16.5289L67.5256 16.7794C66.7077 16.8128 66.1352 16.963 65.808 17.2302C65.5136 17.4639 65.2028 17.9815 64.8756 18.7829C63.3053 22.5561 61.5877 25.6616 59.7229 28.0992L60.8025 29.3514C62.1438 30.8874 63.2398 31.9392 64.0904 32.5069C64.941 33.0745 65.9062 33.3584 66.9858 33.3584C67.9345 33.3584 68.7851 33.158 69.5376 32.7573C70.3228 32.3566 71.157 31.6721 72.0404 30.7037L72.5311 30.1528L72.7274 30.2529ZM44.2646 6.26096C44.2646 7.63002 44.6409 9.06587 45.3933 10.5685C46.1458 12.0711 47.3399 13.7574 48.9757 15.6273L49.0248 15.6774C52.4599 13.7407 54.1775 10.869 54.1775 7.06236C54.1775 5.09225 53.7195 3.52283 52.8035 2.35412C51.9201 1.18541 50.726 0.601053 49.2211 0.601053C47.7816 0.601053 46.5875 1.13532 45.6387 2.20386C44.7227 3.239 44.2646 4.59137 44.2646 6.26096ZM47.6998 34.5605C49.172 34.5605 50.6606 34.2099 52.1655 33.5086C53.6704 32.8074 55.1427 31.8057 56.5821 30.5034L45.6387 17.5307C44.1011 18.499 42.9069 19.8013 42.0563 21.4375C41.2057 23.0403 40.7804 24.8101 40.7804 26.7468C40.7804 29.1176 41.402 31.021 42.6452 32.4568C43.9211 33.8593 45.606 34.5605 47.6998 34.5605Z" fill="#102C57"/>
</svg>
