<svg width="34" height="34" viewBox="0 0 34 34" fill="none" xmlns="http://www.w3.org/2000/svg">
<g clip-path="url(#clip0_42_14)">
<path d="M17 2.83337C24.824 2.83337 31.1667 9.176 31.1667 17C31.1667 24.824 24.824 31.1667 17 31.1667C9.176 31.1667 2.83337 24.824 2.83337 17C2.83337 9.176 9.176 2.83337 17 2.83337ZM14.1667 11.3334C13.4402 11.3334 12.8414 11.8803 12.7596 12.5848L12.75 12.75V21.25C12.75 22.0325 13.3843 22.6667 14.1667 22.6667C14.8932 22.6667 15.492 22.1198 15.5738 21.4153L15.5834 21.25V12.75C15.5834 11.9676 14.9491 11.3334 14.1667 11.3334ZM19.8334 11.3334C19.0509 11.3334 18.4167 11.9676 18.4167 12.75V21.25C18.4167 22.0325 19.0509 22.6667 19.8334 22.6667C20.6158 22.6667 21.25 22.0325 21.25 21.25V12.75C21.25 11.9676 20.6158 11.3334 19.8334 11.3334Z" fill="#102C57"/>
</g>
<defs>
<clipPath id="clip0_42_14">
<rect width="34" height="34" fill="white"/>
</clipPath>
</defs>
</svg>
