<svg width="34" height="34" viewBox="0 0 34 34" fill="none" xmlns="http://www.w3.org/2000/svg">
<g clip-path="url(#clip0_42_8)">
<path d="M17 2.83337C24.824 2.83337 31.1667 9.176 31.1667 17C31.1667 24.824 24.824 31.1667 17 31.1667C9.176 31.1667 2.83337 24.824 2.83337 17C2.83337 9.176 9.176 2.83337 17 2.83337ZM12.6997 12.2547L12.6233 12.9613L12.5813 13.4346L12.5215 14.2831L12.4881 14.9352L12.4629 15.6517L12.449 16.4285V17.2482L12.463 18.0254L12.4881 18.7422L12.5216 19.3945L12.5814 20.2432L12.6826 21.2776C12.6886 21.3296 12.6944 21.378 12.6999 21.4229C12.8365 22.5401 14.0005 23.2157 15.0397 22.774L15.6858 22.4885L16.6077 22.0507L17.1608 21.773L17.7694 21.4555L18.429 21.0973L19.1351 20.6978L19.8339 20.2861C19.9454 20.2191 20.0546 20.1528 20.1612 20.0874L20.7709 19.7068L21.3192 19.3521L21.8043 19.0276L22.7295 18.3757L22.9802 18.1896C23.8838 17.5095 23.8784 16.1621 22.9784 15.4863L22.4034 15.0665L22.0137 14.7933L21.5591 14.484L20.7601 13.9623L20.1529 13.5828L19.4886 13.1833L18.7812 12.7749L18.1031 12.3994L17.471 12.0633L16.8897 11.7663L16.1247 11.3932L15.503 11.1062L15.1768 10.9622C15.1287 10.9413 15.0837 10.922 15.0421 10.9042C14.0051 10.462 12.8367 11.1337 12.6997 12.2547Z" fill="#102C57"/>
</g>
<defs>
<clipPath id="clip0_42_8">
<rect width="34" height="34" fill="white"/>
</clipPath>
</defs>
</svg>
